<svg xmlns="http://www.w3.org/2000/svg" version="1.1" xmlns:xlink="http://www.w3.org/1999/xlink" width="980" height="331.5" viewBox="0 0 980 331.5" shape-rendering="geometricPrecision" data-left="0" data-right="980" data-top="0" data-bottom="331.5"><g data-name="page" data-interval-between-stave-lines="8.5" data-font-color="#121212" data-left="0" data-right="980" data-top="0" data-bottom="331.5"><rect width="980" height="331.5" stroke="transparent" stroke-width="0.425" stroke-linejoin="" stroke-linecap="" fill="#FDF5E6" vector-effect="none" data-name="page-background" data-left="0" data-right="980" data-top="0" data-bottom="331.5"></rect><g data-name="pageWithoutBorder" data-left="0" data-right="980" data-top="71.315" data-bottom="263.925"><g data-name="measures" data-left="68" data-right="912" data-top="71.315" data-bottom="263.925" transform="translate(68, 0)"><g data-name="additionalStaveLinesOnPageLine" data-left="78.285" data-right="99.535" data-top="119" data-bottom="119"><line data-name="additionalStaveLine" x1="10.285" y1="119" x2="31.535" y2="119" stroke="#121212" stroke-width="1.445" stroke-linejoin="round" stroke-linecap="round" stroke-dasharray="" vector-effect="none" data-left="78.285" data-right="99.535" data-top="119" data-bottom="119"></line></g><g data-name="measure" ref-ids="measure-1,measure-1-1,line-1,every-measure-including-index-0,first-measure-including-index-0,last-measure,first-or-last-measure,last-measure-on-page" pointer-events="painted" data-left="68" data-right="912" data-top="71.315" data-bottom="263.925"><g data-name="startBarLine" ref-ids="opening-barline-1" pointer-events="painted" data-left="68" data-right="69.955" data-top="75.99" data-bottom="255.51"><g data-name="stavesPiece" data-left="68" data-right="69.955" data-top="75.99" data-bottom="255.51"><g data-name="stavePiece" data-left="68" data-right="69.955" data-top="75.99" data-bottom="111.01"><path d="M 0 -0.51 L 1.955 -0.51 L 1.955 0.51 L 0 0.51 L 0 -0.51 M 0 7.99 L 1.955 7.99 L 1.955 9.01 L 0 9.01 L 0 7.99 M 0 16.49 L 1.955 16.49 L 1.955 17.51 L 0 17.51 L 0 16.49 M 0 24.99 L 1.955 24.99 L 1.955 26.01 L 0 26.01 L 0 24.99 M 0 33.49 L 1.955 33.49 L 1.955 34.51 L 0 34.51 L 0 33.49" fill="#343434" fill-rule="evenodd" vector-effect="none" data-left="68" data-right="69.955" data-top="75.99" data-bottom="111.01" transform="translate(0, 76.5)"></path></g><g data-name="stavePiece" data-left="68" data-right="69.955" data-top="220.49" data-bottom="255.51"><path d="M 0 -0.51 L 1.955 -0.51 L 1.955 0.51 L 0 0.51 L 0 -0.51 M 0 7.99 L 1.955 7.99 L 1.955 9.01 L 0 9.01 L 0 7.99 M 0 16.49 L 1.955 16.49 L 1.955 17.51 L 0 17.51 L 0 16.49 M 0 24.99 L 1.955 24.99 L 1.955 26.01 L 0 26.01 L 0 24.99 M 0 33.49 L 1.955 33.49 L 1.955 34.51 L 0 34.51 L 0 33.49" fill="#343434" fill-rule="evenodd" vector-effect="none" data-left="68" data-right="69.955" data-top="220.49" data-bottom="255.51" transform="translate(0, 221)"></path></g></g><polyline points="0 75.99 1.955 75.99 1.955 255.51 0 255.51" fill="#121212" fill-rule="evenodd" vector-effect="none" data-left="68" data-right="69.955" data-top="75.99" data-bottom="255.51"></polyline></g><g data-name="barLine" ref-ids="closing-barline-1" pointer-events="painted" data-left="910.045" data-right="912" data-top="75.99" data-bottom="255.51" transform="translate(840.09, 0)"><g data-name="stavesPiece" data-left="910.045" data-right="912" data-top="75.99" data-bottom="255.51"><g data-name="stavePiece" data-left="910.045" data-right="912" data-top="75.99" data-bottom="111.01"><path d="M 0 -0.51 L 1.955 -0.51 L 1.955 0.51 L 0 0.51 L 0 -0.51 M 0 7.99 L 1.955 7.99 L 1.955 9.01 L 0 9.01 L 0 7.99 M 0 16.49 L 1.955 16.49 L 1.955 17.51 L 0 17.51 L 0 16.49 M 0 24.99 L 1.955 24.99 L 1.955 26.01 L 0 26.01 L 0 24.99 M 0 33.49 L 1.955 33.49 L 1.955 34.51 L 0 34.51 L 0 33.49" fill="#343434" fill-rule="evenodd" vector-effect="none" data-left="910.045" data-right="912" data-top="75.99" data-bottom="111.01" transform="translate(1.955, 76.5)"></path></g><g data-name="stavePiece" data-left="910.045" data-right="912" data-top="220.49" data-bottom="255.51"><path d="M 0 -0.51 L 1.955 -0.51 L 1.955 0.51 L 0 0.51 L 0 -0.51 M 0 7.99 L 1.955 7.99 L 1.955 9.01 L 0 9.01 L 0 7.99 M 0 16.49 L 1.955 16.49 L 1.955 17.51 L 0 17.51 L 0 16.49 M 0 24.99 L 1.955 24.99 L 1.955 26.01 L 0 26.01 L 0 24.99 M 0 33.49 L 1.955 33.49 L 1.955 34.51 L 0 34.51 L 0 33.49" fill="#343434" fill-rule="evenodd" vector-effect="none" data-left="910.045" data-right="912" data-top="220.49" data-bottom="255.51" transform="translate(1.955, 221)"></path></g></g><polyline points="3.91 75.99 1.955 75.99 1.955 255.51 3.91 255.51" fill="#121212" fill-rule="evenodd" vector-effect="none" data-left="910.045" data-right="912" data-top="75.99" data-bottom="255.51"></polyline></g><g data-name="voicesWithStaveLines" data-left="69.955" data-right="910.045" data-top="71.315" data-bottom="263.925"><g data-name="stavesPiece" data-left="69.955" data-right="910.045" data-top="75.99" data-bottom="255.51"><g data-name="stavePiece" ref-ids="stave-lines-1-1,stave-1,stave-1-1,stave-1-1-1,stave-in-all-measures-on-line-1-1,all-staves-in-measure-1" pointer-events="painted" data-left="68" data-right="912" data-top="75.99" data-bottom="111.01"><path d="M 0 -0.51 L 840.09 -0.51 L 840.09 0.51 L 0 0.51 L 0 -0.51 M 0 7.99 L 840.09 7.99 L 840.09 9.01 L 0 9.01 L 0 7.99 M 0 16.49 L 840.09 16.49 L 840.09 17.51 L 0 17.51 L 0 16.49 M 0 24.99 L 840.09 24.99 L 840.09 26.01 L 0 26.01 L 0 24.99 M 0 33.49 L 840.09 33.49 L 840.09 34.51 L 0 34.51 L 0 33.49" fill="#343434" fill-rule="evenodd" vector-effect="none" data-left="69.955" data-right="910.045" data-top="75.99" data-bottom="111.01" transform="translate(1.955, 76.5)"></path></g><g data-name="stavePiece" ref-ids="stave-lines-1-2,stave-2,stave-1-2,stave-1-1-2,stave-in-all-measures-on-line-1-2,all-staves-in-measure-1" pointer-events="painted" data-left="68" data-right="912" data-top="220.49" data-bottom="255.51"><path d="M 0 -0.51 L 840.09 -0.51 L 840.09 0.51 L 0 0.51 L 0 -0.51 M 0 7.99 L 840.09 7.99 L 840.09 9.01 L 0 9.01 L 0 7.99 M 0 16.49 L 840.09 16.49 L 840.09 17.51 L 0 17.51 L 0 16.49 M 0 24.99 L 840.09 24.99 L 840.09 26.01 L 0 26.01 L 0 24.99 M 0 33.49 L 840.09 33.49 L 840.09 34.51 L 0 34.51 L 0 33.49" fill="#343434" fill-rule="evenodd" vector-effect="none" data-left="69.955" data-right="910.045" data-top="220.49" data-bottom="255.51" transform="translate(1.955, 221)"></path></g></g><g data-name="voices" data-left="69.955" data-right="910.045" data-top="71.315" data-bottom="263.925"><g data-name="voicesBody" data-left="69.955" data-right="910.045" data-top="71.315" data-bottom="263.925"><g data-name="crossStaveUnit" data-left="82.705" data-right="95.115" data-top="88.315" data-bottom="248.965"><g data-name="crossVoiceUnitOnOneStave" data-left="82.705" data-right="95.115" data-top="88.315" data-bottom="123.675"><g data-name="singleUnit" ref-ids="all-units,all-units-on-line-1,unit-1-1-1-1,voice-1,voice-1-1,voice-1-1-1,voice-1-1-1-1,voice-in-measure-on-all-staves-1-1-1,voice-in-all-measures-and-on-all-staves-on-line-1-1" pointer-events="painted" data-left="82.705" data-right="95.115" data-top="88.315" data-bottom="123.675"><g data-name="singleUnitBodyParts" ref-ids="unit-1-1-1-1" pointer-events="painted" data-left="82.705" data-right="95.115" data-top="114.24" data-bottom="123.675"><g data-name="singleUnitBody" data-left="82.705" data-right="95.115" data-top="114.24" data-bottom="123.675"><g data-name="noteBody" ref-ids="note-1-1-1-1-1,note-with-index-1-1-1-1-1" pointer-events="painted" data-left="82.705" data-right="95.115" data-top="114.24" data-bottom="123.675"><path d="M 0 10.965 C 0 12.92 1.785 14.11 4.08 14.11 C 7.82 14.11 12.41 11.05 12.41 7.82 C 12.41 5.865 10.71 4.675 8.33 4.675 C 3.74 4.675 0 7.735 0 10.965 Z" fill="#121212" fill-rule="evenodd" vector-effect="none" data-left="82.705" data-right="95.115" data-top="114.24" data-bottom="123.675" transform="translate(14.705, 109.565)"></path></g></g></g><line data-name="stem" x1="26.52" y1="88.315" x2="26.52" y2="117.3" stroke="#121212" stroke-width="1.19" stroke-linejoin="round" stroke-linecap="round" stroke-dasharray="" vector-effect="none" ref-ids="stem-1-1-1-1" pointer-events="painted" data-left="94.52" data-right="94.52" data-top="88.315" data-bottom="117.3"></line></g></g><g data-name="crossVoiceUnitOnOneStave" data-left="84.32" data-right="93.5" data-top="223.55" data-bottom="248.965"><g data-name="singleUnit" ref-ids="all-units,all-units-on-line-1,unit-1-2-1-1,voice-1,voice-2-1,voice-1-2-1,voice-1-1-2-1,voice-in-measure-on-all-staves-1-1-1,voice-in-all-measures-and-on-all-staves-on-line-1-1" pointer-events="painted" data-left="84.32" data-right="93.5" data-top="223.55" data-bottom="248.965" transform="translate(1.615, 0)"><g data-name="rest" ref-ids="rest-1-2-1-1,unit-1-2-1-1,note-with-index-1-2-1-1-1" pointer-events="painted" data-left="84.32" data-right="93.5" data-top="223.55" data-bottom="248.965"><path d="M 3.91 37.91 C 4.25 38.08 4.59 38.165 4.845 38.165 C 5.1 38.165 5.27 38.08 5.355 37.995 C 5.355 37.91 5.44 37.825 5.44 37.74 C 5.44 37.4 5.1 37.145 4.845 36.89 C 4.42 36.89 4.08 36.04 3.995 35.7 C 3.91 35.445 3.825 35.105 3.825 34.85 C 3.825 33.405 4.59 32.3 5.95 32.3 C 6.97 32.3 8.075 32.725 8.67 32.895 C 8.67 32.895 8.67 32.98 8.755 32.98 C 8.84 32.98 8.925 32.98 9.01 32.98 C 9.095 32.98 9.18 32.98 9.18 32.81 C 9.18 32.47 8.245 31.28 7.905 30.94 C 6.63 29.325 5.525 28.05 5.525 26.18 C 5.525 26.01 5.61 25.84 5.61 25.755 C 5.695 23.8 6.97 22.1 7.82 20.74 C 7.905 20.57 7.99 20.4 7.99 20.23 C 7.99 19.89 7.82 19.55 7.82 19.55 C 7.82 19.55 2.805 13.6 2.21 13.005 C 2.04 12.835 1.785 12.75 1.615 12.75 C 1.275 12.75 0.935 13.005 0.935 13.43 C 0.935 13.6 0.935 13.77 1.02 14.025 C 1.19 14.365 3.145 16.15 3.145 18.53 C 3.145 19.805 2.635 21.25 1.105 22.865 C 0.765 23.205 0.595 23.63 0.595 23.885 C 0.595 24.31 0.935 24.65 0.935 24.65 L 2.635 26.69 C 3.145 27.37 3.655 28.05 4.08 28.73 C 4.165 28.9 4.25 29.155 4.25 29.24 C 4.25 29.24 4.25 29.325 4.25 29.41 C 4.165 29.495 4.08 29.58 3.91 29.58 C 3.74 29.58 3.485 29.495 3.315 29.41 C 3.145 29.41 2.975 29.325 2.805 29.325 C 1.36 29.325 0 30.77 0 32.64 C 0 34.34 1.445 35.955 3.91 37.91 Z" fill="#121212" fill-rule="evenodd" vector-effect="none" data-left="84.32" data-right="93.5" data-top="223.55" data-bottom="248.965" transform="translate(14.705, 210.8)"></path></g></g></g></g><g data-name="crossStaveUnit" data-left="108.885" data-right="121.295" data-top="79.05" data-bottom="263.925"><g data-name="crossVoiceUnitOnOneStave" data-left="110.5" data-right="119.68" data-top="79.05" data-bottom="104.465"><g data-name="singleUnit" ref-ids="all-units,all-units-on-line-1,unit-1-1-1-2,voice-1,voice-1-1,voice-1-1-1,voice-1-1-1-1,voice-in-measure-on-all-staves-1-1-1,voice-in-all-measures-and-on-all-staves-on-line-1-1" pointer-events="painted" data-left="110.5" data-right="119.68" data-top="79.05" data-bottom="104.465" transform="translate(1.615, 0)"><g data-name="rest" ref-ids="rest-1-1-1-2,unit-1-1-1-2,note-with-index-1-1-1-2-1" pointer-events="painted" data-left="110.5" data-right="119.68" data-top="79.05" data-bottom="104.465"><path d="M 3.91 37.91 C 4.25 38.08 4.59 38.165 4.845 38.165 C 5.1 38.165 5.27 38.08 5.355 37.995 C 5.355 37.91 5.44 37.825 5.44 37.74 C 5.44 37.4 5.1 37.145 4.845 36.89 C 4.42 36.89 4.08 36.04 3.995 35.7 C 3.91 35.445 3.825 35.105 3.825 34.85 C 3.825 33.405 4.59 32.3 5.95 32.3 C 6.97 32.3 8.075 32.725 8.67 32.895 C 8.67 32.895 8.67 32.98 8.755 32.98 C 8.84 32.98 8.925 32.98 9.01 32.98 C 9.095 32.98 9.18 32.98 9.18 32.81 C 9.18 32.47 8.245 31.28 7.905 30.94 C 6.63 29.325 5.525 28.05 5.525 26.18 C 5.525 26.01 5.61 25.84 5.61 25.755 C 5.695 23.8 6.97 22.1 7.82 20.74 C 7.905 20.57 7.99 20.4 7.99 20.23 C 7.99 19.89 7.82 19.55 7.82 19.55 C 7.82 19.55 2.805 13.6 2.21 13.005 C 2.04 12.835 1.785 12.75 1.615 12.75 C 1.275 12.75 0.935 13.005 0.935 13.43 C 0.935 13.6 0.935 13.77 1.02 14.025 C 1.19 14.365 3.145 16.15 3.145 18.53 C 3.145 19.805 2.635 21.25 1.105 22.865 C 0.765 23.205 0.595 23.63 0.595 23.885 C 0.595 24.31 0.935 24.65 0.935 24.65 L 2.635 26.69 C 3.145 27.37 3.655 28.05 4.08 28.73 C 4.165 28.9 4.25 29.155 4.25 29.24 C 4.25 29.24 4.25 29.325 4.25 29.41 C 4.165 29.495 4.08 29.58 3.91 29.58 C 3.74 29.58 3.485 29.495 3.315 29.41 C 3.145 29.41 2.975 29.325 2.805 29.325 C 1.36 29.325 0 30.77 0 32.64 C 0 34.34 1.445 35.955 3.91 37.91 Z" fill="#121212" fill-rule="evenodd" vector-effect="none" data-left="110.5" data-right="119.68" data-top="79.05" data-bottom="104.465" transform="translate(40.885, 66.3)"></path></g></g></g><g data-name="crossVoiceUnitOnOneStave" data-left="108.885" data-right="121.295" data-top="228.565" data-bottom="263.925"><g data-name="singleUnit" ref-ids="all-units,all-units-on-line-1,unit-1-2-1-2,voice-1,voice-2-1,voice-1-2-1,voice-1-1-2-1,voice-in-measure-on-all-staves-1-1-1,voice-in-all-measures-and-on-all-staves-on-line-1-1" pointer-events="painted" data-left="108.885" data-right="121.295" data-top="228.565" data-bottom="263.925"><g data-name="singleUnitBodyParts" ref-ids="unit-1-2-1-2" pointer-events="painted" data-left="108.885" data-right="121.295" data-top="254.49" data-bottom="263.925"><g data-name="singleUnitBody" data-left="108.885" data-right="121.295" data-top="254.49" data-bottom="263.925"><g data-name="noteBody" ref-ids="note-1-2-1-2-1,note-with-index-1-2-1-2-1" pointer-events="painted" data-left="108.885" data-right="121.295" data-top="254.49" data-bottom="263.925"><path d="M 0 10.965 C 0 12.92 1.785 14.11 4.08 14.11 C 7.82 14.11 12.41 11.05 12.41 7.82 C 12.41 5.865 10.71 4.675 8.33 4.675 C 3.74 4.675 0 7.735 0 10.965 Z" fill="#121212" fill-rule="evenodd" vector-effect="none" data-left="108.885" data-right="121.295" data-top="254.49" data-bottom="263.925" transform="translate(40.885, 249.815)"></path></g></g></g><line data-name="stem" x1="52.7" y1="228.565" x2="52.7" y2="257.55" stroke="#121212" stroke-width="1.19" stroke-linejoin="round" stroke-linecap="round" stroke-dasharray="" vector-effect="none" ref-ids="stem-1-2-1-2" pointer-events="painted" data-left="120.7" data-right="120.7" data-top="228.565" data-bottom="257.55"></line></g></g></g><g data-name="crossStaveUnit" data-left="135.065" data-right="147.475" data-top="79.815" data-bottom="248.965"><g data-name="crossVoiceUnitOnOneStave" data-left="135.065" data-right="147.475" data-top="79.815" data-bottom="115.175"><g data-name="singleUnit" ref-ids="all-units,all-units-on-line-1,unit-1-1-1-3,voice-1,voice-1-1,voice-1-1-1,voice-1-1-1-1,voice-in-measure-on-all-staves-1-1-1,voice-in-all-measures-and-on-all-staves-on-line-1-1" pointer-events="painted" data-left="135.065" data-right="147.475" data-top="79.815" data-bottom="115.175"><g data-name="singleUnitBodyParts" ref-ids="unit-1-1-1-3" pointer-events="painted" data-left="135.065" data-right="147.475" data-top="105.74" data-bottom="115.175"><g data-name="singleUnitBody" data-left="135.065" data-right="147.475" data-top="105.74" data-bottom="115.175"><g data-name="noteBody" ref-ids="note-1-1-1-3-1,note-with-index-1-1-1-3-1" pointer-events="painted" data-left="135.065" data-right="147.475" data-top="105.74" data-bottom="115.175"><path d="M 0 10.965 C 0 12.92 1.785 14.11 4.08 14.11 C 7.82 14.11 12.41 11.05 12.41 7.82 C 12.41 5.865 10.71 4.675 8.33 4.675 C 3.74 4.675 0 7.735 0 10.965 Z" fill="#121212" fill-rule="evenodd" vector-effect="none" data-left="135.065" data-right="147.475" data-top="105.74" data-bottom="115.175" transform="translate(67.065, 101.065)"></path></g></g></g><line data-name="stem" x1="78.88" y1="79.815" x2="78.88" y2="108.8" stroke="#121212" stroke-width="1.19" stroke-linejoin="round" stroke-linecap="round" stroke-dasharray="" vector-effect="none" ref-ids="stem-1-1-1-3" pointer-events="painted" data-left="146.88" data-right="146.88" data-top="79.815" data-bottom="108.8"></line></g></g><g data-name="crossVoiceUnitOnOneStave" data-left="136.68" data-right="145.86" data-top="223.55" data-bottom="248.965"><g data-name="singleUnit" ref-ids="all-units,all-units-on-line-1,unit-1-2-1-3,voice-1,voice-2-1,voice-1-2-1,voice-1-1-2-1,voice-in-measure-on-all-staves-1-1-1,voice-in-all-measures-and-on-all-staves-on-line-1-1" pointer-events="painted" data-left="136.68" data-right="145.86" data-top="223.55" data-bottom="248.965" transform="translate(1.615, 0)"><g data-name="rest" ref-ids="rest-1-2-1-3,unit-1-2-1-3,note-with-index-1-2-1-3-1" pointer-events="painted" data-left="136.68" data-right="145.86" data-top="223.55" data-bottom="248.965"><path d="M 3.91 37.91 C 4.25 38.08 4.59 38.165 4.845 38.165 C 5.1 38.165 5.27 38.08 5.355 37.995 C 5.355 37.91 5.44 37.825 5.44 37.74 C 5.44 37.4 5.1 37.145 4.845 36.89 C 4.42 36.89 4.08 36.04 3.995 35.7 C 3.91 35.445 3.825 35.105 3.825 34.85 C 3.825 33.405 4.59 32.3 5.95 32.3 C 6.97 32.3 8.075 32.725 8.67 32.895 C 8.67 32.895 8.67 32.98 8.755 32.98 C 8.84 32.98 8.925 32.98 9.01 32.98 C 9.095 32.98 9.18 32.98 9.18 32.81 C 9.18 32.47 8.245 31.28 7.905 30.94 C 6.63 29.325 5.525 28.05 5.525 26.18 C 5.525 26.01 5.61 25.84 5.61 25.755 C 5.695 23.8 6.97 22.1 7.82 20.74 C 7.905 20.57 7.99 20.4 7.99 20.23 C 7.99 19.89 7.82 19.55 7.82 19.55 C 7.82 19.55 2.805 13.6 2.21 13.005 C 2.04 12.835 1.785 12.75 1.615 12.75 C 1.275 12.75 0.935 13.005 0.935 13.43 C 0.935 13.6 0.935 13.77 1.02 14.025 C 1.19 14.365 3.145 16.15 3.145 18.53 C 3.145 19.805 2.635 21.25 1.105 22.865 C 0.765 23.205 0.595 23.63 0.595 23.885 C 0.595 24.31 0.935 24.65 0.935 24.65 L 2.635 26.69 C 3.145 27.37 3.655 28.05 4.08 28.73 C 4.165 28.9 4.25 29.155 4.25 29.24 C 4.25 29.24 4.25 29.325 4.25 29.41 C 4.165 29.495 4.08 29.58 3.91 29.58 C 3.74 29.58 3.485 29.495 3.315 29.41 C 3.145 29.41 2.975 29.325 2.805 29.325 C 1.36 29.325 0 30.77 0 32.64 C 0 34.34 1.445 35.955 3.91 37.91 Z" fill="#121212" fill-rule="evenodd" vector-effect="none" data-left="136.68" data-right="145.86" data-top="223.55" data-bottom="248.965" transform="translate(67.065, 210.8)"></path></g></g></g></g><g data-name="crossStaveUnit" data-left="161.245" data-right="173.655" data-top="79.05" data-bottom="255.425"><g data-name="crossVoiceUnitOnOneStave" data-left="162.86" data-right="172.04" data-top="79.05" data-bottom="104.465"><g data-name="singleUnit" ref-ids="all-units,all-units-on-line-1,unit-1-1-1-4,voice-1,voice-1-1,voice-1-1-1,voice-1-1-1-1,voice-in-measure-on-all-staves-1-1-1,voice-in-all-measures-and-on-all-staves-on-line-1-1" pointer-events="painted" data-left="162.86" data-right="172.04" data-top="79.05" data-bottom="104.465" transform="translate(1.615, 0)"><g data-name="rest" ref-ids="rest-1-1-1-4,unit-1-1-1-4,note-with-index-1-1-1-4-1" pointer-events="painted" data-left="162.86" data-right="172.04" data-top="79.05" data-bottom="104.465"><path d="M 3.91 37.91 C 4.25 38.08 4.59 38.165 4.845 38.165 C 5.1 38.165 5.27 38.08 5.355 37.995 C 5.355 37.91 5.44 37.825 5.44 37.74 C 5.44 37.4 5.1 37.145 4.845 36.89 C 4.42 36.89 4.08 36.04 3.995 35.7 C 3.91 35.445 3.825 35.105 3.825 34.85 C 3.825 33.405 4.59 32.3 5.95 32.3 C 6.97 32.3 8.075 32.725 8.67 32.895 C 8.67 32.895 8.67 32.98 8.755 32.98 C 8.84 32.98 8.925 32.98 9.01 32.98 C 9.095 32.98 9.18 32.98 9.18 32.81 C 9.18 32.47 8.245 31.28 7.905 30.94 C 6.63 29.325 5.525 28.05 5.525 26.18 C 5.525 26.01 5.61 25.84 5.61 25.755 C 5.695 23.8 6.97 22.1 7.82 20.74 C 7.905 20.57 7.99 20.4 7.99 20.23 C 7.99 19.89 7.82 19.55 7.82 19.55 C 7.82 19.55 2.805 13.6 2.21 13.005 C 2.04 12.835 1.785 12.75 1.615 12.75 C 1.275 12.75 0.935 13.005 0.935 13.43 C 0.935 13.6 0.935 13.77 1.02 14.025 C 1.19 14.365 3.145 16.15 3.145 18.53 C 3.145 19.805 2.635 21.25 1.105 22.865 C 0.765 23.205 0.595 23.63 0.595 23.885 C 0.595 24.31 0.935 24.65 0.935 24.65 L 2.635 26.69 C 3.145 27.37 3.655 28.05 4.08 28.73 C 4.165 28.9 4.25 29.155 4.25 29.24 C 4.25 29.24 4.25 29.325 4.25 29.41 C 4.165 29.495 4.08 29.58 3.91 29.58 C 3.74 29.58 3.485 29.495 3.315 29.41 C 3.145 29.41 2.975 29.325 2.805 29.325 C 1.36 29.325 0 30.77 0 32.64 C 0 34.34 1.445 35.955 3.91 37.91 Z" fill="#121212" fill-rule="evenodd" vector-effect="none" data-left="162.86" data-right="172.04" data-top="79.05" data-bottom="104.465" transform="translate(93.245, 66.3)"></path></g></g></g><g data-name="crossVoiceUnitOnOneStave" data-left="161.245" data-right="173.655" data-top="220.065" data-bottom="255.425"><g data-name="singleUnit" ref-ids="all-units,all-units-on-line-1,unit-1-2-1-4,voice-1,voice-2-1,voice-1-2-1,voice-1-1-2-1,voice-in-measure-on-all-staves-1-1-1,voice-in-all-measures-and-on-all-staves-on-line-1-1" pointer-events="painted" data-left="161.245" data-right="173.655" data-top="220.065" data-bottom="255.425"><g data-name="singleUnitBodyParts" ref-ids="unit-1-2-1-4" pointer-events="painted" data-left="161.245" data-right="173.655" data-top="245.99" data-bottom="255.425"><g data-name="singleUnitBody" data-left="161.245" data-right="173.655" data-top="245.99" data-bottom="255.425"><g data-name="noteBody" ref-ids="note-1-2-1-4-1,note-with-index-1-2-1-4-1" pointer-events="painted" data-left="161.245" data-right="173.655" data-top="245.99" data-bottom="255.425"><path d="M 0 10.965 C 0 12.92 1.785 14.11 4.08 14.11 C 7.82 14.11 12.41 11.05 12.41 7.82 C 12.41 5.865 10.71 4.675 8.33 4.675 C 3.74 4.675 0 7.735 0 10.965 Z" fill="#121212" fill-rule="evenodd" vector-effect="none" data-left="161.245" data-right="173.655" data-top="245.99" data-bottom="255.425" transform="translate(93.245, 241.315)"></path></g></g></g><line data-name="stem" x1="105.06" y1="220.065" x2="105.06" y2="249.05" stroke="#121212" stroke-width="1.19" stroke-linejoin="round" stroke-linecap="round" stroke-dasharray="" vector-effect="none" ref-ids="stem-1-2-1-4" pointer-events="painted" data-left="173.06" data-right="173.06" data-top="220.065" data-bottom="249.05"></line></g></g></g><g data-name="crossStaveUnit" data-left="187.425" data-right="199.835" data-top="71.315" data-bottom="248.965"><g data-name="crossVoiceUnitOnOneStave" data-left="187.425" data-right="199.835" data-top="71.315" data-bottom="106.675"><g data-name="singleUnit" ref-ids="all-units,all-units-on-line-1,unit-1-1-1-5,voice-1,voice-1-1,voice-1-1-1,voice-1-1-1-1,voice-in-measure-on-all-staves-1-1-1,voice-in-all-measures-and-on-all-staves-on-line-1-1" pointer-events="painted" data-left="187.425" data-right="199.835" data-top="71.315" data-bottom="106.675"><g data-name="singleUnitBodyParts" ref-ids="unit-1-1-1-5" pointer-events="painted" data-left="187.425" data-right="199.835" data-top="97.24" data-bottom="106.675"><g data-name="singleUnitBody" data-left="187.425" data-right="199.835" data-top="97.24" data-bottom="106.675"><g data-name="noteBody" ref-ids="note-1-1-1-5-1,note-with-index-1-1-1-5-1" pointer-events="painted" data-left="187.425" data-right="199.835" data-top="97.24" data-bottom="106.675"><path d="M 0 10.965 C 0 12.92 1.785 14.11 4.08 14.11 C 7.82 14.11 12.41 11.05 12.41 7.82 C 12.41 5.865 10.71 4.675 8.33 4.675 C 3.74 4.675 0 7.735 0 10.965 Z" fill="#121212" fill-rule="evenodd" vector-effect="none" data-left="187.425" data-right="199.835" data-top="97.24" data-bottom="106.675" transform="translate(119.425, 92.565)"></path></g></g></g><line data-name="stem" x1="131.24" y1="71.315" x2="131.24" y2="100.3" stroke="#121212" stroke-width="1.19" stroke-linejoin="round" stroke-linecap="round" stroke-dasharray="" vector-effect="none" ref-ids="stem-1-1-1-5" pointer-events="painted" data-left="199.24" data-right="199.24" data-top="71.315" data-bottom="100.3"></line></g></g><g data-name="crossVoiceUnitOnOneStave" data-left="189.04" data-right="198.22" data-top="223.55" data-bottom="248.965"><g data-name="singleUnit" ref-ids="all-units,all-units-on-line-1,unit-1-2-1-5,voice-1,voice-2-1,voice-1-2-1,voice-1-1-2-1,voice-in-measure-on-all-staves-1-1-1,voice-in-all-measures-and-on-all-staves-on-line-1-1" pointer-events="painted" data-left="189.04" data-right="198.22" data-top="223.55" data-bottom="248.965" transform="translate(1.615, 0)"><g data-name="rest" ref-ids="rest-1-2-1-5,unit-1-2-1-5,note-with-index-1-2-1-5-1" pointer-events="painted" data-left="189.04" data-right="198.22" data-top="223.55" data-bottom="248.965"><path d="M 3.91 37.91 C 4.25 38.08 4.59 38.165 4.845 38.165 C 5.1 38.165 5.27 38.08 5.355 37.995 C 5.355 37.91 5.44 37.825 5.44 37.74 C 5.44 37.4 5.1 37.145 4.845 36.89 C 4.42 36.89 4.08 36.04 3.995 35.7 C 3.91 35.445 3.825 35.105 3.825 34.85 C 3.825 33.405 4.59 32.3 5.95 32.3 C 6.97 32.3 8.075 32.725 8.67 32.895 C 8.67 32.895 8.67 32.98 8.755 32.98 C 8.84 32.98 8.925 32.98 9.01 32.98 C 9.095 32.98 9.18 32.98 9.18 32.81 C 9.18 32.47 8.245 31.28 7.905 30.94 C 6.63 29.325 5.525 28.05 5.525 26.18 C 5.525 26.01 5.61 25.84 5.61 25.755 C 5.695 23.8 6.97 22.1 7.82 20.74 C 7.905 20.57 7.99 20.4 7.99 20.23 C 7.99 19.89 7.82 19.55 7.82 19.55 C 7.82 19.55 2.805 13.6 2.21 13.005 C 2.04 12.835 1.785 12.75 1.615 12.75 C 1.275 12.75 0.935 13.005 0.935 13.43 C 0.935 13.6 0.935 13.77 1.02 14.025 C 1.19 14.365 3.145 16.15 3.145 18.53 C 3.145 19.805 2.635 21.25 1.105 22.865 C 0.765 23.205 0.595 23.63 0.595 23.885 C 0.595 24.31 0.935 24.65 0.935 24.65 L 2.635 26.69 C 3.145 27.37 3.655 28.05 4.08 28.73 C 4.165 28.9 4.25 29.155 4.25 29.24 C 4.25 29.24 4.25 29.325 4.25 29.41 C 4.165 29.495 4.08 29.58 3.91 29.58 C 3.74 29.58 3.485 29.495 3.315 29.41 C 3.145 29.41 2.975 29.325 2.805 29.325 C 1.36 29.325 0 30.77 0 32.64 C 0 34.34 1.445 35.955 3.91 37.91 Z" fill="#121212" fill-rule="evenodd" vector-effect="none" data-left="189.04" data-right="198.22" data-top="223.55" data-bottom="248.965" transform="translate(119.425, 210.8)"></path></g></g></g></g><g data-name="crossStaveUnit" data-left="213.605" data-right="226.015" data-top="79.05" data-bottom="246.925"><g data-name="crossVoiceUnitOnOneStave" data-left="215.22" data-right="224.4" data-top="79.05" data-bottom="104.465"><g data-name="singleUnit" ref-ids="all-units,all-units-on-line-1,unit-1-1-1-6,voice-1,voice-1-1,voice-1-1-1,voice-1-1-1-1,voice-in-measure-on-all-staves-1-1-1,voice-in-all-measures-and-on-all-staves-on-line-1-1" pointer-events="painted" data-left="215.22" data-right="224.4" data-top="79.05" data-bottom="104.465" transform="translate(1.615, 0)"><g data-name="rest" ref-ids="rest-1-1-1-6,unit-1-1-1-6,note-with-index-1-1-1-6-1" pointer-events="painted" data-left="215.22" data-right="224.4" data-top="79.05" data-bottom="104.465"><path d="M 3.91 37.91 C 4.25 38.08 4.59 38.165 4.845 38.165 C 5.1 38.165 5.27 38.08 5.355 37.995 C 5.355 37.91 5.44 37.825 5.44 37.74 C 5.44 37.4 5.1 37.145 4.845 36.89 C 4.42 36.89 4.08 36.04 3.995 35.7 C 3.91 35.445 3.825 35.105 3.825 34.85 C 3.825 33.405 4.59 32.3 5.95 32.3 C 6.97 32.3 8.075 32.725 8.67 32.895 C 8.67 32.895 8.67 32.98 8.755 32.98 C 8.84 32.98 8.925 32.98 9.01 32.98 C 9.095 32.98 9.18 32.98 9.18 32.81 C 9.18 32.47 8.245 31.28 7.905 30.94 C 6.63 29.325 5.525 28.05 5.525 26.18 C 5.525 26.01 5.61 25.84 5.61 25.755 C 5.695 23.8 6.97 22.1 7.82 20.74 C 7.905 20.57 7.99 20.4 7.99 20.23 C 7.99 19.89 7.82 19.55 7.82 19.55 C 7.82 19.55 2.805 13.6 2.21 13.005 C 2.04 12.835 1.785 12.75 1.615 12.75 C 1.275 12.75 0.935 13.005 0.935 13.43 C 0.935 13.6 0.935 13.77 1.02 14.025 C 1.19 14.365 3.145 16.15 3.145 18.53 C 3.145 19.805 2.635 21.25 1.105 22.865 C 0.765 23.205 0.595 23.63 0.595 23.885 C 0.595 24.31 0.935 24.65 0.935 24.65 L 2.635 26.69 C 3.145 27.37 3.655 28.05 4.08 28.73 C 4.165 28.9 4.25 29.155 4.25 29.24 C 4.25 29.24 4.25 29.325 4.25 29.41 C 4.165 29.495 4.08 29.58 3.91 29.58 C 3.74 29.58 3.485 29.495 3.315 29.41 C 3.145 29.41 2.975 29.325 2.805 29.325 C 1.36 29.325 0 30.77 0 32.64 C 0 34.34 1.445 35.955 3.91 37.91 Z" fill="#121212" fill-rule="evenodd" vector-effect="none" data-left="215.22" data-right="224.4" data-top="79.05" data-bottom="104.465" transform="translate(145.605, 66.3)"></path></g></g></g><g data-name="crossVoiceUnitOnOneStave" data-left="213.605" data-right="226.015" data-top="211.565" data-bottom="246.925"><g data-name="singleUnit" ref-ids="all-units,all-units-on-line-1,unit-1-2-1-6,voice-1,voice-2-1,voice-1-2-1,voice-1-1-2-1,voice-in-measure-on-all-staves-1-1-1,voice-in-all-measures-and-on-all-staves-on-line-1-1" pointer-events="painted" data-left="213.605" data-right="226.015" data-top="211.565" data-bottom="246.925"><g data-name="singleUnitBodyParts" ref-ids="unit-1-2-1-6" pointer-events="painted" data-left="213.605" data-right="226.015" data-top="237.49" data-bottom="246.925"><g data-name="singleUnitBody" data-left="213.605" data-right="226.015" data-top="237.49" data-bottom="246.925"><g data-name="noteBody" ref-ids="note-1-2-1-6-1,note-with-index-1-2-1-6-1" pointer-events="painted" data-left="213.605" data-right="226.015" data-top="237.49" data-bottom="246.925"><path d="M 0 10.965 C 0 12.92 1.785 14.11 4.08 14.11 C 7.82 14.11 12.41 11.05 12.41 7.82 C 12.41 5.865 10.71 4.675 8.33 4.675 C 3.74 4.675 0 7.735 0 10.965 Z" fill="#121212" fill-rule="evenodd" vector-effect="none" data-left="213.605" data-right="226.015" data-top="237.49" data-bottom="246.925" transform="translate(145.605, 232.815)"></path></g></g></g><line data-name="stem" x1="157.42" y1="211.565" x2="157.42" y2="240.55" stroke="#121212" stroke-width="1.19" stroke-linejoin="round" stroke-linecap="round" stroke-dasharray="" vector-effect="none" ref-ids="stem-1-2-1-6" pointer-events="painted" data-left="225.42" data-right="225.42" data-top="211.565" data-bottom="240.55"></line></g></g></g></g></g></g></g></g><rect width="68" height="178.5" stroke="#FDF5E6" stroke-width="0.0085" stroke-linejoin="bevel" stroke-linecap="butt" fill="none" vector-effect="none" data-left="0" data-right="68" data-top="76.5" data-bottom="255" transform="translate(0, 76.5)"></rect><rect width="68" height="178.5" stroke="#FDF5E6" stroke-width="0.0085" stroke-linejoin="bevel" stroke-linecap="butt" fill="none" vector-effect="none" data-left="912" data-right="980" data-top="76.5" data-bottom="255" transform="translate(912, 76.5)"></rect></g></g></svg>