<svg xmlns="http://www.w3.org/2000/svg" version="1.1" xmlns:xlink="http://www.w3.org/1999/xlink" width="980" height="331.5" viewBox="0 0 980 331.5" shape-rendering="geometricPrecision" data-left="0" data-right="980" data-top="0" data-bottom="331.5"><g data-name="page" data-interval-between-stave-lines="8.5" data-font-color="#121212" data-left="0" data-right="980" data-top="0" data-bottom="331.5"><rect width="980" height="331.5" stroke="transparent" stroke-width="0.425" stroke-linejoin="" stroke-linecap="" fill="#FDF5E6" vector-effect="none" data-name="page-background" data-left="0" data-right="980" data-top="0" data-bottom="331.5"></rect><g data-name="pageWithoutBorder" data-left="0" data-right="980" data-top="65.45" data-bottom="266.05"><g data-name="measures" data-left="68" data-right="912" data-top="65.45" data-bottom="266.05" transform="translate(68, 0)"><g data-name="measure" ref-ids="measure-1,measure-1-1,line-1,every-measure-including-index-0,first-measure-including-index-0,last-measure,first-or-last-measure,last-measure-on-page" pointer-events="painted" data-left="68" data-right="912" data-top="65.45" data-bottom="266.05"><g data-name="combinedConnections" data-left="68" data-right="77.18" data-top="65.45" data-bottom="266.05"><g data-name="bracketConnection" ref-ids="cross-stave-connection-1-1" pointer-events="painted" data-left="68" data-right="77.18" data-top="65.45" data-bottom="266.05"><path d="M 0 75.48 L 3.4 75.48 L 3.4 256.02 L 0 256.02 Z" fill="#121212" fill-rule="evenodd" vector-effect="none" data-left="68" data-right="71.4" data-top="75.48" data-bottom="256.02"></path><path d="M 0 6.035 L 0 10.03 L 4.25 10.03 C 9.69 9.01 14.535 6.46 15.895 0.85 C 15.98 0.68 15.98 0.595 15.98 0.51 C 15.98 0.17 15.81 0.085 15.64 0 C 15.385 0 14.96 0.255 14.79 0.51 C 14.45 0.85 10.2 5.355 3.74 5.78 L 0.255 5.78 C 0.085 5.78 0 5.865 0 6.035 Z" fill="#121212" fill-rule="evenodd" vector-effect="none" data-left="68" data-right="83.98" data-top="65.45" data-bottom="75.48" transform="translate(0, -10.03)translate(0, 75.48)"></path><path d="M 0 0 L 0 3.995 C 0 4.165 0.085 4.25 0.255 4.25 L 3.74 4.25 C 10.2 4.675 14.45 9.18 14.79 9.52 C 14.96 9.775 15.385 10.03 15.64 10.03 C 15.81 9.945 15.98 9.86 15.98 9.52 C 15.98 9.435 15.98 9.35 15.895 9.18 C 14.535 3.57 9.69 1.02 4.25 0 Z" fill="#121212" fill-rule="evenodd" vector-effect="none" data-left="68" data-right="83.98" data-top="256.02" data-bottom="266.05" transform="translate(0, 256.02)"></path></g></g><g data-name="startBarLine" ref-ids="opening-barline-1" pointer-events="painted" data-left="77.18" data-right="79.135" data-top="75.99" data-bottom="255.51"><g data-name="stavesPiece" data-left="77.18" data-right="79.135" data-top="75.99" data-bottom="255.51"><g data-name="stavePiece" data-left="77.18" data-right="79.135" data-top="75.99" data-bottom="111.01"><path d="M 0 -0.51 L 1.955 -0.51 L 1.955 0.51 L 0 0.51 L 0 -0.51 M 0 7.99 L 1.955 7.99 L 1.955 9.01 L 0 9.01 L 0 7.99 M 0 16.49 L 1.955 16.49 L 1.955 17.51 L 0 17.51 L 0 16.49 M 0 24.99 L 1.955 24.99 L 1.955 26.01 L 0 26.01 L 0 24.99 M 0 33.49 L 1.955 33.49 L 1.955 34.51 L 0 34.51 L 0 33.49" fill="#343434" fill-rule="evenodd" vector-effect="none" data-left="77.18" data-right="79.135" data-top="75.99" data-bottom="111.01" transform="translate(9.18, 76.5)"></path></g><g data-name="stavePiece" data-left="77.18" data-right="79.135" data-top="220.49" data-bottom="255.51"><path d="M 0 -0.51 L 1.955 -0.51 L 1.955 0.51 L 0 0.51 L 0 -0.51 M 0 7.99 L 1.955 7.99 L 1.955 9.01 L 0 9.01 L 0 7.99 M 0 16.49 L 1.955 16.49 L 1.955 17.51 L 0 17.51 L 0 16.49 M 0 24.99 L 1.955 24.99 L 1.955 26.01 L 0 26.01 L 0 24.99 M 0 33.49 L 1.955 33.49 L 1.955 34.51 L 0 34.51 L 0 33.49" fill="#343434" fill-rule="evenodd" vector-effect="none" data-left="77.18" data-right="79.135" data-top="220.49" data-bottom="255.51" transform="translate(9.18, 221)"></path></g></g><polyline points="9.18 75.99 11.135 75.99 11.135 255.51 9.18 255.51" fill="#121212" fill-rule="evenodd" vector-effect="none" data-left="77.18" data-right="79.135" data-top="75.99" data-bottom="255.51"></polyline></g><g data-name="barLine" ref-ids="closing-barline-1" pointer-events="painted" data-left="910.045" data-right="912" data-top="75.99" data-bottom="255.51" transform="translate(830.91, 0)"><g data-name="stavesPiece" data-left="910.045" data-right="912" data-top="75.99" data-bottom="255.51"><g data-name="stavePiece" data-left="910.045" data-right="912" data-top="75.99" data-bottom="111.01"><path d="M 0 -0.51 L 1.955 -0.51 L 1.955 0.51 L 0 0.51 L 0 -0.51 M 0 7.99 L 1.955 7.99 L 1.955 9.01 L 0 9.01 L 0 7.99 M 0 16.49 L 1.955 16.49 L 1.955 17.51 L 0 17.51 L 0 16.49 M 0 24.99 L 1.955 24.99 L 1.955 26.01 L 0 26.01 L 0 24.99 M 0 33.49 L 1.955 33.49 L 1.955 34.51 L 0 34.51 L 0 33.49" fill="#343434" fill-rule="evenodd" vector-effect="none" data-left="910.045" data-right="912" data-top="75.99" data-bottom="111.01" transform="translate(11.135, 76.5)"></path></g><g data-name="stavePiece" data-left="910.045" data-right="912" data-top="220.49" data-bottom="255.51"><path d="M 0 -0.51 L 1.955 -0.51 L 1.955 0.51 L 0 0.51 L 0 -0.51 M 0 7.99 L 1.955 7.99 L 1.955 9.01 L 0 9.01 L 0 7.99 M 0 16.49 L 1.955 16.49 L 1.955 17.51 L 0 17.51 L 0 16.49 M 0 24.99 L 1.955 24.99 L 1.955 26.01 L 0 26.01 L 0 24.99 M 0 33.49 L 1.955 33.49 L 1.955 34.51 L 0 34.51 L 0 33.49" fill="#343434" fill-rule="evenodd" vector-effect="none" data-left="910.045" data-right="912" data-top="220.49" data-bottom="255.51" transform="translate(11.135, 221)"></path></g></g><polyline points="13.09 75.99 11.135 75.99 11.135 255.51 13.09 255.51" fill="#121212" fill-rule="evenodd" vector-effect="none" data-left="910.045" data-right="912" data-top="75.99" data-bottom="255.51"></polyline></g><g data-name="voicesWithStaveLines" data-left="79.135" data-right="910.045" data-top="75.99" data-bottom="255.51"><g data-name="stavesPiece" data-left="79.135" data-right="910.045" data-top="75.99" data-bottom="255.51"><g data-name="stavePiece" ref-ids="stave-lines-1-1,stave-1,stave-1-1,stave-1-1-1,stave-in-all-measures-on-line-1-1,all-staves-in-measure-1" pointer-events="painted" data-left="77.18" data-right="912" data-top="75.99" data-bottom="111.01"><path d="M 0 -0.51 L 830.91 -0.51 L 830.91 0.51 L 0 0.51 L 0 -0.51 M 0 7.99 L 830.91 7.99 L 830.91 9.01 L 0 9.01 L 0 7.99 M 0 16.49 L 830.91 16.49 L 830.91 17.51 L 0 17.51 L 0 16.49 M 0 24.99 L 830.91 24.99 L 830.91 26.01 L 0 26.01 L 0 24.99 M 0 33.49 L 830.91 33.49 L 830.91 34.51 L 0 34.51 L 0 33.49" fill="#343434" fill-rule="evenodd" vector-effect="none" data-left="79.135" data-right="910.045" data-top="75.99" data-bottom="111.01" transform="translate(11.135, 76.5)"></path></g><g data-name="stavePiece" ref-ids="stave-lines-1-2,stave-2,stave-1-2,stave-1-1-2,stave-in-all-measures-on-line-1-2,all-staves-in-measure-1" pointer-events="painted" data-left="77.18" data-right="912" data-top="220.49" data-bottom="255.51"><path d="M 0 -0.51 L 830.91 -0.51 L 830.91 0.51 L 0 0.51 L 0 -0.51 M 0 7.99 L 830.91 7.99 L 830.91 9.01 L 0 9.01 L 0 7.99 M 0 16.49 L 830.91 16.49 L 830.91 17.51 L 0 17.51 L 0 16.49 M 0 24.99 L 830.91 24.99 L 830.91 26.01 L 0 26.01 L 0 24.99 M 0 33.49 L 830.91 33.49 L 830.91 34.51 L 0 34.51 L 0 33.49" fill="#343434" fill-rule="evenodd" vector-effect="none" data-left="79.135" data-right="910.045" data-top="220.49" data-bottom="255.51" transform="translate(11.135, 221)"></path></g></g></g></g></g><rect width="68" height="178.5" stroke="#FDF5E6" stroke-width="0.0085" stroke-linejoin="bevel" stroke-linecap="butt" fill="none" vector-effect="none" data-left="0" data-right="68" data-top="76.5" data-bottom="255" transform="translate(0, 76.5)"></rect><rect width="68" height="178.5" stroke="#FDF5E6" stroke-width="0.0085" stroke-linejoin="bevel" stroke-linecap="butt" fill="none" vector-effect="none" data-left="912" data-right="980" data-top="76.5" data-bottom="255" transform="translate(912, 76.5)"></rect></g></g></svg>