<svg xmlns="http://www.w3.org/2000/svg" version="1.1" xmlns:xlink="http://www.w3.org/1999/xlink" width="980" height="187" viewBox="0 0 980 187" shape-rendering="geometricPrecision" data-left="0" data-right="980" data-top="0" data-bottom="187"><g data-name="page" data-interval-between-stave-lines="8.5" data-font-color="#121212" data-left="0" data-right="980" data-top="0" data-bottom="187"><rect width="980" height="187" stroke="transparent" stroke-width="0.425" stroke-linejoin="" stroke-linecap="" fill="#FDF5E6" vector-effect="none" data-name="page-background" data-left="0" data-right="980" data-top="0" data-bottom="187"></rect><g data-name="pageWithoutBorder" data-left="0" data-right="980" data-top="30.515" data-bottom="123.675"><g data-name="measures" data-left="68" data-right="912" data-top="30.515" data-bottom="123.675" transform="translate(68, 0)"><g data-name="additionalStaveLinesOnPageLine" data-left="104.465" data-right="271.32" data-top="119" data-bottom="119"><line data-name="additionalStaveLine" x1="36.465" y1="119" x2="57.715" y2="119" stroke="#121212" stroke-width="1.445" stroke-linejoin="round" stroke-linecap="round" stroke-dasharray="" vector-effect="none" data-left="104.465" data-right="125.715" data-top="119" data-bottom="119"></line><line data-name="additionalStaveLine" x1="182.07" y1="119" x2="203.32" y2="119" stroke="#121212" stroke-width="1.445" stroke-linejoin="round" stroke-linecap="round" stroke-dasharray="" vector-effect="none" data-left="250.07" data-right="271.32" data-top="119" data-bottom="119"></line></g><g data-name="measure" ref-ids="measure-1,measure-1-1,line-1,every-measure-including-index-0,first-measure-including-index-0" pointer-events="painted" data-left="68" data-right="215.56" data-top="30.515" data-bottom="123.675"><g data-name="startBarLine" ref-ids="opening-barline-1" pointer-events="painted" data-left="68" data-right="69.955" data-top="75.99" data-bottom="111.01"><g data-name="stavesPiece" data-left="68" data-right="69.955" data-top="75.99" data-bottom="111.01"><g data-name="stavePiece" data-left="68" data-right="69.955" data-top="75.99" data-bottom="111.01"><path d="M 0 -0.51 L 1.955 -0.51 L 1.955 0.51 L 0 0.51 L 0 -0.51 M 0 7.99 L 1.955 7.99 L 1.955 9.01 L 0 9.01 L 0 7.99 M 0 16.49 L 1.955 16.49 L 1.955 17.51 L 0 17.51 L 0 16.49 M 0 24.99 L 1.955 24.99 L 1.955 26.01 L 0 26.01 L 0 24.99 M 0 33.49 L 1.955 33.49 L 1.955 34.51 L 0 34.51 L 0 33.49" fill="#343434" fill-rule="evenodd" vector-effect="none" data-left="68" data-right="69.955" data-top="75.99" data-bottom="111.01" transform="translate(0, 76.5)"></path></g></g><polyline points="0 75.99 1.955 75.99 1.955 111.01 0 111.01" fill="#121212" fill-rule="evenodd" vector-effect="none" data-left="68" data-right="69.955" data-top="75.99" data-bottom="111.01"></polyline></g><g data-name="voicesWithStaveLines" data-left="69.955" data-right="213.605" data-top="67.065" data-bottom="123.675"><g data-name="stavesPiece" data-left="69.955" data-right="213.605" data-top="75.99" data-bottom="111.01"><g data-name="stavePiece" ref-ids="stave-lines-1-1,stave-1,stave-1-1,stave-1-1-1,stave-in-all-measures-on-line-1-1,all-staves-in-measure-1" pointer-events="painted" data-left="68" data-right="215.56" data-top="75.99" data-bottom="111.01"><path d="M 0 -0.51 L 143.65 -0.51 L 143.65 0.51 L 0 0.51 L 0 -0.51 M 0 7.99 L 143.65 7.99 L 143.65 9.01 L 0 9.01 L 0 7.99 M 0 16.49 L 143.65 16.49 L 143.65 17.51 L 0 17.51 L 0 16.49 M 0 24.99 L 143.65 24.99 L 143.65 26.01 L 0 26.01 L 0 24.99 M 0 33.49 L 143.65 33.49 L 143.65 34.51 L 0 34.51 L 0 33.49" fill="#343434" fill-rule="evenodd" vector-effect="none" data-left="69.955" data-right="213.605" data-top="75.99" data-bottom="111.01" transform="translate(1.955, 76.5)"></path></g></g><g data-name="voices" data-left="69.955" data-right="213.605" data-top="67.065" data-bottom="123.675"><g data-name="voicesBody" data-left="69.955" data-right="213.605" data-top="30.515" data-bottom="123.675"><g data-name="crossStaveUnit" data-left="82.705" data-right="95.115" data-top="67.065" data-bottom="102.425"><g data-name="crossVoiceUnitOnOneStave" data-left="82.705" data-right="95.115" data-top="67.065" data-bottom="102.425"><g data-name="singleUnit" ref-ids="all-units,all-units-on-line-1,unit-1-1-1-1,voice-1,voice-1-1,voice-1-1-1,voice-1-1-1-1,voice-in-measure-on-all-staves-1-1-1,voice-in-all-measures-and-on-all-staves-on-line-1-1" pointer-events="painted" data-left="82.705" data-right="95.115" data-top="30.515" data-bottom="102.425"><g data-name="singleUnitBodyParts" ref-ids="unit-1-1-1-1" pointer-events="painted" data-left="82.705" data-right="95.115" data-top="92.99" data-bottom="102.425"><g data-name="singleUnitBody" data-left="82.705" data-right="95.115" data-top="92.99" data-bottom="102.425"><g data-name="noteBody" ref-ids="note-1-1-1-1-1,note-with-index-1-1-1-1-1" pointer-events="painted" data-left="82.705" data-right="95.115" data-top="92.99" data-bottom="102.425"><path d="M 0 10.965 C 0 12.92 1.785 14.11 4.08 14.11 C 7.82 14.11 12.41 11.05 12.41 7.82 C 12.41 5.865 10.71 4.675 8.33 4.675 C 3.74 4.675 0 7.735 0 10.965 Z" fill="#121212" fill-rule="evenodd" vector-effect="none" data-left="82.705" data-right="95.115" data-top="92.99" data-bottom="102.425" transform="translate(14.705, 88.315)"></path></g></g></g><line data-name="stem" x1="26.52" y1="67.065" x2="26.52" y2="96.05" stroke="#121212" stroke-width="1.19" stroke-linejoin="round" stroke-linecap="round" stroke-dasharray="" vector-effect="none" ref-ids="stem-1-1-1-1" pointer-events="painted" data-left="94.52" data-right="94.52" data-top="67.065" data-bottom="96.05"></line></g></g></g><g data-name="crossStaveUnit" data-left="108.885" data-right="121.295" data-top="88.315" data-bottom="123.675"><g data-name="crossVoiceUnitOnOneStave" data-left="108.885" data-right="121.295" data-top="88.315" data-bottom="123.675"><g data-name="singleUnit" ref-ids="all-units,all-units-on-line-1,unit-1-1-1-2,voice-1,voice-1-1,voice-1-1-1,voice-1-1-1-1,voice-in-measure-on-all-staves-1-1-1,voice-in-all-measures-and-on-all-staves-on-line-1-1" pointer-events="painted" data-left="108.885" data-right="121.295" data-top="30.515" data-bottom="123.675"><g data-name="singleUnitBodyParts" ref-ids="unit-1-1-1-2" pointer-events="painted" data-left="108.885" data-right="121.295" data-top="114.24" data-bottom="123.675"><g data-name="singleUnitBody" data-left="108.885" data-right="121.295" data-top="114.24" data-bottom="123.675"><g data-name="noteBody" ref-ids="note-1-1-1-2-1,note-with-index-1-1-1-2-1" pointer-events="painted" data-left="108.885" data-right="121.295" data-top="114.24" data-bottom="123.675"><path d="M 0 10.965 C 0 12.92 1.785 14.11 4.08 14.11 C 7.82 14.11 12.41 11.05 12.41 7.82 C 12.41 5.865 10.71 4.675 8.33 4.675 C 3.74 4.675 0 7.735 0 10.965 Z" fill="#121212" fill-rule="evenodd" vector-effect="none" data-left="108.885" data-right="121.295" data-top="114.24" data-bottom="123.675" transform="translate(40.885, 109.565)"></path></g></g></g><line data-name="stem" x1="52.7" y1="88.315" x2="52.7" y2="117.3" stroke="#121212" stroke-width="1.19" stroke-linejoin="round" stroke-linecap="round" stroke-dasharray="" vector-effect="none" ref-ids="stem-1-1-1-2" pointer-events="painted" data-left="120.7" data-right="120.7" data-top="88.315" data-bottom="117.3"></line></g></g></g><g data-name="crossStaveUnit" data-left="135.065" data-right="147.475" data-top="84.065" data-bottom="119.425"><g data-name="crossVoiceUnitOnOneStave" data-left="135.065" data-right="147.475" data-top="84.065" data-bottom="119.425"><g data-name="singleUnit" ref-ids="all-units,all-units-on-line-1,unit-1-1-1-3,voice-1,voice-1-1,voice-1-1-1,voice-1-1-1-1,voice-in-measure-on-all-staves-1-1-1,voice-in-all-measures-and-on-all-staves-on-line-1-1" pointer-events="painted" data-left="135.065" data-right="147.475" data-top="30.515" data-bottom="119.425"><g data-name="singleUnitBodyParts" ref-ids="unit-1-1-1-3" pointer-events="painted" data-left="135.065" data-right="147.475" data-top="109.99" data-bottom="119.425"><g data-name="singleUnitBody" data-left="135.065" data-right="147.475" data-top="109.99" data-bottom="119.425"><g data-name="noteBody" ref-ids="note-1-1-1-3-1,note-with-index-1-1-1-3-1" pointer-events="painted" data-left="135.065" data-right="147.475" data-top="109.99" data-bottom="119.425"><path d="M 0 10.965 C 0 12.92 1.785 14.11 4.08 14.11 C 7.82 14.11 12.41 11.05 12.41 7.82 C 12.41 5.865 10.71 4.675 8.33 4.675 C 3.74 4.675 0 7.735 0 10.965 Z" fill="#121212" fill-rule="evenodd" vector-effect="none" data-left="135.065" data-right="147.475" data-top="109.99" data-bottom="119.425" transform="translate(67.065, 105.315)"></path></g></g></g><line data-name="stem" x1="78.88" y1="84.065" x2="78.88" y2="113.05" stroke="#121212" stroke-width="1.19" stroke-linejoin="round" stroke-linecap="round" stroke-dasharray="" vector-effect="none" ref-ids="stem-1-1-1-3" pointer-events="painted" data-left="146.88" data-right="146.88" data-top="84.065" data-bottom="113.05"></line></g></g></g><g data-name="crossStaveUnit" data-left="161.245" data-right="173.655" data-top="79.815" data-bottom="115.175"><g data-name="crossVoiceUnitOnOneStave" data-left="161.245" data-right="173.655" data-top="79.815" data-bottom="115.175"><g data-name="singleUnit" ref-ids="all-units,all-units-on-line-1,unit-1-1-1-4,voice-1,voice-1-1,voice-1-1-1,voice-1-1-1-1,voice-in-measure-on-all-staves-1-1-1,voice-in-all-measures-and-on-all-staves-on-line-1-1" pointer-events="painted" data-left="161.245" data-right="173.655" data-top="30.515" data-bottom="115.175"><g data-name="singleUnitBodyParts" ref-ids="unit-1-1-1-4" pointer-events="painted" data-left="161.245" data-right="173.655" data-top="105.74" data-bottom="115.175"><g data-name="singleUnitBody" data-left="161.245" data-right="173.655" data-top="105.74" data-bottom="115.175"><g data-name="noteBody" ref-ids="note-1-1-1-4-1,note-with-index-1-1-1-4-1" pointer-events="painted" data-left="161.245" data-right="173.655" data-top="105.74" data-bottom="115.175"><path d="M 0 10.965 C 0 12.92 1.785 14.11 4.08 14.11 C 7.82 14.11 12.41 11.05 12.41 7.82 C 12.41 5.865 10.71 4.675 8.33 4.675 C 3.74 4.675 0 7.735 0 10.965 Z" fill="#121212" fill-rule="evenodd" vector-effect="none" data-left="161.245" data-right="173.655" data-top="105.74" data-bottom="115.175" transform="translate(93.245, 101.065)"></path></g></g></g><line data-name="stem" x1="105.06" y1="79.815" x2="105.06" y2="108.8" stroke="#121212" stroke-width="1.19" stroke-linejoin="round" stroke-linecap="round" stroke-dasharray="" vector-effect="none" ref-ids="stem-1-1-1-4" pointer-events="painted" data-left="173.06" data-right="173.06" data-top="79.815" data-bottom="108.8"></line></g></g></g><g data-name="crossStaveUnit" data-left="187.425" data-right="199.835" data-top="75.565" data-bottom="110.925"><g data-name="crossVoiceUnitOnOneStave" data-left="187.425" data-right="199.835" data-top="75.565" data-bottom="110.925"><g data-name="singleUnit" ref-ids="all-units,all-units-on-line-1,unit-1-1-1-5,voice-1,voice-1-1,voice-1-1-1,voice-1-1-1-1,voice-in-measure-on-all-staves-1-1-1,voice-in-all-measures-and-on-all-staves-on-line-1-1" pointer-events="painted" data-left="187.425" data-right="199.835" data-top="30.515" data-bottom="110.925"><g data-name="singleUnitBodyParts" ref-ids="unit-1-1-1-5" pointer-events="painted" data-left="187.425" data-right="199.835" data-top="101.49" data-bottom="110.925"><g data-name="singleUnitBody" data-left="187.425" data-right="199.835" data-top="101.49" data-bottom="110.925"><g data-name="noteBody" ref-ids="note-1-1-1-5-1,note-with-index-1-1-1-5-1" pointer-events="painted" data-left="187.425" data-right="199.835" data-top="101.49" data-bottom="110.925"><path d="M 0 10.965 C 0 12.92 1.785 14.11 4.08 14.11 C 7.82 14.11 12.41 11.05 12.41 7.82 C 12.41 5.865 10.71 4.675 8.33 4.675 C 3.74 4.675 0 7.735 0 10.965 Z" fill="#121212" fill-rule="evenodd" vector-effect="none" data-left="187.425" data-right="199.835" data-top="101.49" data-bottom="110.925" transform="translate(119.425, 96.815)"></path></g></g></g><line data-name="stem" x1="131.24" y1="75.565" x2="131.24" y2="104.55" stroke="#121212" stroke-width="1.19" stroke-linejoin="round" stroke-linecap="round" stroke-dasharray="" vector-effect="none" ref-ids="stem-1-1-1-5" pointer-events="painted" data-left="199.24" data-right="199.24" data-top="75.565" data-bottom="104.55"></line></g></g></g></g></g></g><g data-name="barLine" ref-ids="closing-barline-1" pointer-events="painted" data-left="213.605" data-right="215.56" data-top="75.99" data-bottom="111.01"><g data-name="stavesPiece" data-left="213.605" data-right="215.56" data-top="75.99" data-bottom="111.01"><g data-name="stavePiece" data-left="213.605" data-right="215.56" data-top="75.99" data-bottom="111.01"><path d="M 0 -0.51 L 1.955 -0.51 L 1.955 0.51 L 0 0.51 L 0 -0.51 M 0 7.99 L 1.955 7.99 L 1.955 9.01 L 0 9.01 L 0 7.99 M 0 16.49 L 1.955 16.49 L 1.955 17.51 L 0 17.51 L 0 16.49 M 0 24.99 L 1.955 24.99 L 1.955 26.01 L 0 26.01 L 0 24.99 M 0 33.49 L 1.955 33.49 L 1.955 34.51 L 0 34.51 L 0 33.49" fill="#343434" fill-rule="evenodd" vector-effect="none" data-left="213.605" data-right="215.56" data-top="75.99" data-bottom="111.01" transform="translate(145.605, 76.5)"></path></g></g><polyline points="147.56 75.99 145.605 75.99 145.605 111.01 147.56 111.01" fill="#121212" fill-rule="evenodd" vector-effect="none" data-left="213.605" data-right="215.56" data-top="75.99" data-bottom="111.01"></polyline></g></g><g data-name="measure" ref-ids="measure-2,measure-1-2,line-1,every-measure,every-measure-including-index-0,last-measure,first-or-last-measure,last-measure-on-page" pointer-events="painted" data-left="215.56" data-right="912" data-top="30.515" data-bottom="123.675"><g data-name="barLine" ref-ids="closing-barline-2" pointer-events="painted" data-left="910.045" data-right="912" data-top="75.99" data-bottom="111.01" transform="translate(694.485, 0)"><g data-name="stavesPiece" data-left="910.045" data-right="912" data-top="75.99" data-bottom="111.01"><g data-name="stavePiece" data-left="910.045" data-right="912" data-top="75.99" data-bottom="111.01"><path d="M 0 -0.51 L 1.955 -0.51 L 1.955 0.51 L 0 0.51 L 0 -0.51 M 0 7.99 L 1.955 7.99 L 1.955 9.01 L 0 9.01 L 0 7.99 M 0 16.49 L 1.955 16.49 L 1.955 17.51 L 0 17.51 L 0 16.49 M 0 24.99 L 1.955 24.99 L 1.955 26.01 L 0 26.01 L 0 24.99 M 0 33.49 L 1.955 33.49 L 1.955 34.51 L 0 34.51 L 0 33.49" fill="#343434" fill-rule="evenodd" vector-effect="none" data-left="910.045" data-right="912" data-top="75.99" data-bottom="111.01" transform="translate(147.56, 76.5)"></path></g></g><polyline points="149.515 75.99 147.56 75.99 147.56 111.01 149.515 111.01" fill="#121212" fill-rule="evenodd" vector-effect="none" data-left="910.045" data-right="912" data-top="75.99" data-bottom="111.01"></polyline></g><g data-name="voicesWithStaveLines" data-left="215.56" data-right="910.045" data-top="67.065" data-bottom="123.675"><g data-name="stavesPiece" data-left="215.56" data-right="910.045" data-top="75.99" data-bottom="111.01"><g data-name="stavePiece" ref-ids="stave-lines-2-1,stave-1,stave-2-1,stave-1-2-1,stave-in-all-measures-on-line-1-1,all-staves-in-measure-2" pointer-events="painted" data-left="215.56" data-right="912" data-top="75.99" data-bottom="111.01"><path d="M 0 -0.51 L 694.485 -0.51 L 694.485 0.51 L 0 0.51 L 0 -0.51 M 0 7.99 L 694.485 7.99 L 694.485 9.01 L 0 9.01 L 0 7.99 M 0 16.49 L 694.485 16.49 L 694.485 17.51 L 0 17.51 L 0 16.49 M 0 24.99 L 694.485 24.99 L 694.485 26.01 L 0 26.01 L 0 24.99 M 0 33.49 L 694.485 33.49 L 694.485 34.51 L 0 34.51 L 0 33.49" fill="#343434" fill-rule="evenodd" vector-effect="none" data-left="215.56" data-right="910.045" data-top="75.99" data-bottom="111.01" transform="translate(147.56, 76.5)"></path></g></g><g data-name="voices" data-left="215.56" data-right="910.045" data-top="67.065" data-bottom="123.675"><g data-name="voicesBody" data-left="215.56" data-right="910.045" data-top="30.515" data-bottom="123.675"><g data-name="crossStaveUnit" data-left="228.31" data-right="240.72" data-top="67.065" data-bottom="102.425"><g data-name="crossVoiceUnitOnOneStave" data-left="228.31" data-right="240.72" data-top="67.065" data-bottom="102.425"><g data-name="singleUnit" ref-ids="all-units,all-units-on-line-1,unit-2-1-1-1,voice-1,voice-1-1,voice-2-1-1,voice-1-2-1-1,voice-in-measure-on-all-staves-1-2-1,voice-in-all-measures-and-on-all-staves-on-line-1-1" pointer-events="painted" data-left="228.31" data-right="240.72" data-top="30.515" data-bottom="102.425"><g data-name="singleUnitBodyParts" ref-ids="unit-2-1-1-1" pointer-events="painted" data-left="228.31" data-right="240.72" data-top="92.99" data-bottom="102.425"><g data-name="singleUnitBody" data-left="228.31" data-right="240.72" data-top="92.99" data-bottom="102.425"><g data-name="noteBody" ref-ids="note-2-1-1-1-1,note-with-index-2-1-1-1-1" pointer-events="painted" data-left="228.31" data-right="240.72" data-top="92.99" data-bottom="102.425"><path d="M 0 10.965 C 0 12.92 1.785 14.11 4.08 14.11 C 7.82 14.11 12.41 11.05 12.41 7.82 C 12.41 5.865 10.71 4.675 8.33 4.675 C 3.74 4.675 0 7.735 0 10.965 Z" fill="#121212" fill-rule="evenodd" vector-effect="none" data-left="228.31" data-right="240.72" data-top="92.99" data-bottom="102.425" transform="translate(160.31, 88.315)"></path></g></g></g><line data-name="stem" x1="172.125" y1="67.065" x2="172.125" y2="96.05" stroke="#121212" stroke-width="1.19" stroke-linejoin="round" stroke-linecap="round" stroke-dasharray="" vector-effect="none" ref-ids="stem-2-1-1-1" pointer-events="painted" data-left="240.125" data-right="240.125" data-top="67.065" data-bottom="96.05"></line></g></g></g><g data-name="crossStaveUnit" data-left="254.49" data-right="266.9" data-top="88.315" data-bottom="123.675"><g data-name="crossVoiceUnitOnOneStave" data-left="254.49" data-right="266.9" data-top="88.315" data-bottom="123.675"><g data-name="singleUnit" ref-ids="all-units,all-units-on-line-1,unit-2-1-1-2,voice-1,voice-1-1,voice-2-1-1,voice-1-2-1-1,voice-in-measure-on-all-staves-1-2-1,voice-in-all-measures-and-on-all-staves-on-line-1-1" pointer-events="painted" data-left="254.49" data-right="266.9" data-top="30.515" data-bottom="123.675"><g data-name="singleUnitBodyParts" ref-ids="unit-2-1-1-2" pointer-events="painted" data-left="254.49" data-right="266.9" data-top="114.24" data-bottom="123.675"><g data-name="singleUnitBody" data-left="254.49" data-right="266.9" data-top="114.24" data-bottom="123.675"><g data-name="noteBody" ref-ids="note-2-1-1-2-1,note-with-index-2-1-1-2-1" pointer-events="painted" data-left="254.49" data-right="266.9" data-top="114.24" data-bottom="123.675"><path d="M 0 10.965 C 0 12.92 1.785 14.11 4.08 14.11 C 7.82 14.11 12.41 11.05 12.41 7.82 C 12.41 5.865 10.71 4.675 8.33 4.675 C 3.74 4.675 0 7.735 0 10.965 Z" fill="#121212" fill-rule="evenodd" vector-effect="none" data-left="254.49" data-right="266.9" data-top="114.24" data-bottom="123.675" transform="translate(186.49, 109.565)"></path></g></g></g><line data-name="stem" x1="198.305" y1="88.315" x2="198.305" y2="117.3" stroke="#121212" stroke-width="1.19" stroke-linejoin="round" stroke-linecap="round" stroke-dasharray="" vector-effect="none" ref-ids="stem-2-1-1-2" pointer-events="painted" data-left="266.305" data-right="266.305" data-top="88.315" data-bottom="117.3"></line></g></g></g><g data-name="crossStaveUnit" data-left="280.67" data-right="293.08" data-top="84.065" data-bottom="119.425"><g data-name="crossVoiceUnitOnOneStave" data-left="280.67" data-right="293.08" data-top="84.065" data-bottom="119.425"><g data-name="singleUnit" ref-ids="all-units,all-units-on-line-1,unit-2-1-1-3,voice-1,voice-1-1,voice-2-1-1,voice-1-2-1-1,voice-in-measure-on-all-staves-1-2-1,voice-in-all-measures-and-on-all-staves-on-line-1-1" pointer-events="painted" data-left="280.67" data-right="293.08" data-top="30.515" data-bottom="119.425"><g data-name="singleUnitBodyParts" ref-ids="unit-2-1-1-3" pointer-events="painted" data-left="280.67" data-right="293.08" data-top="109.99" data-bottom="119.425"><g data-name="singleUnitBody" data-left="280.67" data-right="293.08" data-top="109.99" data-bottom="119.425"><g data-name="noteBody" ref-ids="note-2-1-1-3-1,note-with-index-2-1-1-3-1" pointer-events="painted" data-left="280.67" data-right="293.08" data-top="109.99" data-bottom="119.425"><path d="M 0 10.965 C 0 12.92 1.785 14.11 4.08 14.11 C 7.82 14.11 12.41 11.05 12.41 7.82 C 12.41 5.865 10.71 4.675 8.33 4.675 C 3.74 4.675 0 7.735 0 10.965 Z" fill="#121212" fill-rule="evenodd" vector-effect="none" data-left="280.67" data-right="293.08" data-top="109.99" data-bottom="119.425" transform="translate(212.67, 105.315)"></path></g></g></g><line data-name="stem" x1="224.485" y1="84.065" x2="224.485" y2="113.05" stroke="#121212" stroke-width="1.19" stroke-linejoin="round" stroke-linecap="round" stroke-dasharray="" vector-effect="none" ref-ids="stem-2-1-1-3" pointer-events="painted" data-left="292.485" data-right="292.485" data-top="84.065" data-bottom="113.05"></line></g></g></g><g data-name="crossStaveUnit" data-left="306.85" data-right="319.26" data-top="79.815" data-bottom="115.175"><g data-name="crossVoiceUnitOnOneStave" data-left="306.85" data-right="319.26" data-top="79.815" data-bottom="115.175"><g data-name="singleUnit" ref-ids="all-units,all-units-on-line-1,unit-2-1-1-4,voice-1,voice-1-1,voice-2-1-1,voice-1-2-1-1,voice-in-measure-on-all-staves-1-2-1,voice-in-all-measures-and-on-all-staves-on-line-1-1" pointer-events="painted" data-left="306.85" data-right="319.26" data-top="30.515" data-bottom="115.175"><g data-name="singleUnitBodyParts" ref-ids="unit-2-1-1-4" pointer-events="painted" data-left="306.85" data-right="319.26" data-top="105.74" data-bottom="115.175"><g data-name="singleUnitBody" data-left="306.85" data-right="319.26" data-top="105.74" data-bottom="115.175"><g data-name="noteBody" ref-ids="note-2-1-1-4-1,note-with-index-2-1-1-4-1" pointer-events="painted" data-left="306.85" data-right="319.26" data-top="105.74" data-bottom="115.175"><path d="M 0 10.965 C 0 12.92 1.785 14.11 4.08 14.11 C 7.82 14.11 12.41 11.05 12.41 7.82 C 12.41 5.865 10.71 4.675 8.33 4.675 C 3.74 4.675 0 7.735 0 10.965 Z" fill="#121212" fill-rule="evenodd" vector-effect="none" data-left="306.85" data-right="319.26" data-top="105.74" data-bottom="115.175" transform="translate(238.85, 101.065)"></path></g></g></g><line data-name="stem" x1="250.665" y1="79.815" x2="250.665" y2="108.8" stroke="#121212" stroke-width="1.19" stroke-linejoin="round" stroke-linecap="round" stroke-dasharray="" vector-effect="none" ref-ids="stem-2-1-1-4" pointer-events="painted" data-left="318.665" data-right="318.665" data-top="79.815" data-bottom="108.8"></line></g></g></g><g data-name="crossStaveUnit" data-left="333.03" data-right="345.44" data-top="75.565" data-bottom="110.925"><g data-name="crossVoiceUnitOnOneStave" data-left="333.03" data-right="345.44" data-top="75.565" data-bottom="110.925"><g data-name="singleUnit" ref-ids="all-units,all-units-on-line-1,unit-2-1-1-5,voice-1,voice-1-1,voice-2-1-1,voice-1-2-1-1,voice-in-measure-on-all-staves-1-2-1,voice-in-all-measures-and-on-all-staves-on-line-1-1" pointer-events="painted" data-left="333.03" data-right="345.44" data-top="30.515" data-bottom="110.925"><g data-name="singleUnitBodyParts" ref-ids="unit-2-1-1-5" pointer-events="painted" data-left="333.03" data-right="345.44" data-top="101.49" data-bottom="110.925"><g data-name="singleUnitBody" data-left="333.03" data-right="345.44" data-top="101.49" data-bottom="110.925"><g data-name="noteBody" ref-ids="note-2-1-1-5-1,note-with-index-2-1-1-5-1" pointer-events="painted" data-left="333.03" data-right="345.44" data-top="101.49" data-bottom="110.925"><path d="M 0 10.965 C 0 12.92 1.785 14.11 4.08 14.11 C 7.82 14.11 12.41 11.05 12.41 7.82 C 12.41 5.865 10.71 4.675 8.33 4.675 C 3.74 4.675 0 7.735 0 10.965 Z" fill="#121212" fill-rule="evenodd" vector-effect="none" data-left="333.03" data-right="345.44" data-top="101.49" data-bottom="110.925" transform="translate(265.03, 96.815)"></path></g></g></g><line data-name="stem" x1="276.845" y1="75.565" x2="276.845" y2="104.55" stroke="#121212" stroke-width="1.19" stroke-linejoin="round" stroke-linecap="round" stroke-dasharray="" vector-effect="none" ref-ids="stem-2-1-1-5" pointer-events="painted" data-left="344.845" data-right="344.845" data-top="75.565" data-bottom="104.55"></line></g></g></g></g></g></g></g><g data-name="additionalMeasureElementsOnPageLine" data-left="86.785" data-right="352.58" data-top="30.515" data-bottom="54.315"><g data-name="dynamicChange" ref-ids="crescendo-or-diminuendo-1" pointer-events="painted" data-left="86.785" data-right="207.825" data-top="30.515" data-bottom="54.315" transform="translate(0, -36.55)"><path d="M 0 18.53 C 0 18.87 0.17 18.955 0.425 18.955 L 6.97 18.955 C 7.31 18.955 7.395 18.87 7.395 18.53 C 7.395 18.275 7.31 18.105 6.97 18.105 L 5.61 18.105 C 5.44 18.105 5.355 18.105 5.355 18.02 C 5.355 18.02 5.355 17.85 5.44 17.765 L 6.97 13.94 C 6.97 13.77 7.055 13.6 7.225 13.6 C 7.395 13.6 7.48 13.94 8.075 14.195 C 8.5 14.45 9.01 14.45 9.52 14.45 C 12.835 14.45 15.47 11.05 15.47 7.82 C 15.47 5.865 14.28 4.845 12.325 4.845 C 11.305 4.845 10.54 5.185 9.945 5.695 C 9.435 6.12 9.35 6.375 9.18 6.375 C 9.01 6.375 9.18 6.12 8.84 5.61 C 8.585 5.185 8.075 4.845 7.225 4.845 C 5.185 4.845 4.08 6.29 3.06 8.245 C 2.89 8.5 2.805 8.67 2.805 8.84 C 2.805 9.095 2.975 9.265 3.23 9.265 C 3.4 9.265 3.57 9.01 3.74 8.755 C 4.76 7.055 5.44 6.12 6.035 6.12 C 6.29 6.12 6.375 6.29 6.375 6.545 C 6.375 6.8 6.29 7.14 6.205 7.395 L 2.04 17.765 C 1.87 18.02 1.87 18.105 1.53 18.105 L 0.425 18.105 C 0.17 18.105 0 18.275 0 18.53 Z M 7.905 12.24 C 7.905 11.56 8.16 10.88 8.585 9.86 L 9.265 8.245 C 9.69 7.055 10.625 6.12 11.39 6.12 C 11.985 6.12 12.24 6.63 12.24 7.31 C 12.24 9.01 10.37 13.345 8.755 13.345 C 8.16 13.345 7.905 12.92 7.905 12.24 Z" fill="#121212" fill-rule="evenodd" vector-effect="none" ref-ids="crescendo-or-diminuendo-value-before-1" pointer-events="painted" data-left="86.785" data-right="102.255" data-top="35.36" data-bottom="49.47" transform="translate(18.785, 0)translate(0, 67.065)"></path><path d="M 0 23.12 C 0 24.65 1.105 25.415 2.55 25.415 C 5.1 25.415 6.715 23.715 8.585 19.89 C 9.605 17.765 10.37 15.64 11.135 12.835 C 11.135 12.665 11.475 12.325 11.645 12.325 L 13.855 12.325 C 14.195 12.325 14.365 12.155 14.365 11.815 C 14.365 11.475 14.195 11.305 13.855 11.305 L 11.815 11.305 C 11.56 11.305 11.475 11.305 11.475 11.135 C 11.475 11.05 11.56 10.88 11.56 10.71 C 12.24 7.735 13.005 5.95 14.705 5.95 C 14.96 5.95 15.215 6.035 15.215 6.205 C 15.215 6.46 15.045 6.375 14.705 6.545 C 14.28 6.8 13.94 7.225 13.94 7.82 C 13.94 8.84 14.62 9.265 15.47 9.265 C 16.405 9.265 17.17 8.67 17.17 7.48 C 17.17 6.205 16.405 5.185 14.28 5.185 C 10.965 5.185 9.095 7.48 7.99 10.795 C 7.82 11.305 7.82 11.305 7.31 11.305 L 5.355 11.305 C 4.93 11.305 4.76 11.475 4.76 11.815 C 4.76 12.155 4.93 12.325 5.27 12.325 L 7.31 12.325 C 7.48 12.325 7.565 12.325 7.565 12.495 C 7.565 12.58 7.48 12.665 7.48 12.835 L 5.355 20.23 C 4.42 23.63 3.74 24.65 2.38 24.65 C 1.955 24.65 1.785 24.565 1.785 24.395 C 1.785 24.14 2.125 24.31 2.635 23.97 C 3.06 23.63 3.315 23.205 3.315 22.695 C 3.315 21.76 2.72 21.25 1.785 21.25 C 0.765 21.25 0 22.1 0 23.12 Z" fill="#121212" fill-rule="evenodd" vector-effect="none" ref-ids="crescendo-or-diminuendo-value-after-1" pointer-events="painted" data-left="190.655" data-right="207.825" data-top="32.3" data-bottom="52.53" transform="translate(0, -3.4)translate(122.655, 0)translate(0, 67.065)"></path><path d="M 41.055 78.965 L 115.855 67.065 M 41.055 78.965 L 115.855 90.865" fill="#121212" fill-rule="evenodd" vector-effect="none" stroke="#121212" stroke-width="1.785" stroke-linejoin="bevel" stroke-linecap="round" data-left="109.055" data-right="183.855" data-top="30.515" data-bottom="54.315"></path></g><g data-name="dynamicChange" ref-ids="crescendo-or-diminuendo-2" pointer-events="painted" data-left="231.54" data-right="352.58" data-top="30.515" data-bottom="54.315" transform="translate(0, -39.95)"><path d="M 0 23.12 C 0 24.65 1.105 25.415 2.55 25.415 C 5.1 25.415 6.715 23.715 8.585 19.89 C 9.605 17.765 10.37 15.64 11.135 12.835 C 11.135 12.665 11.475 12.325 11.645 12.325 L 13.855 12.325 C 14.195 12.325 14.365 12.155 14.365 11.815 C 14.365 11.475 14.195 11.305 13.855 11.305 L 11.815 11.305 C 11.56 11.305 11.475 11.305 11.475 11.135 C 11.475 11.05 11.56 10.88 11.56 10.71 C 12.24 7.735 13.005 5.95 14.705 5.95 C 14.96 5.95 15.215 6.035 15.215 6.205 C 15.215 6.46 15.045 6.375 14.705 6.545 C 14.28 6.8 13.94 7.225 13.94 7.82 C 13.94 8.84 14.62 9.265 15.47 9.265 C 16.405 9.265 17.17 8.67 17.17 7.48 C 17.17 6.205 16.405 5.185 14.28 5.185 C 10.965 5.185 9.095 7.48 7.99 10.795 C 7.82 11.305 7.82 11.305 7.31 11.305 L 5.355 11.305 C 4.93 11.305 4.76 11.475 4.76 11.815 C 4.76 12.155 4.93 12.325 5.27 12.325 L 7.31 12.325 C 7.48 12.325 7.565 12.325 7.565 12.495 C 7.565 12.58 7.48 12.665 7.48 12.835 L 5.355 20.23 C 4.42 23.63 3.74 24.65 2.38 24.65 C 1.955 24.65 1.785 24.565 1.785 24.395 C 1.785 24.14 2.125 24.31 2.635 23.97 C 3.06 23.63 3.315 23.205 3.315 22.695 C 3.315 21.76 2.72 21.25 1.785 21.25 C 0.765 21.25 0 22.1 0 23.12 Z" fill="#121212" fill-rule="evenodd" vector-effect="none" ref-ids="crescendo-or-diminuendo-value-before-2" pointer-events="painted" data-left="231.54" data-right="248.71" data-top="32.3" data-bottom="52.53" transform="translate(163.54, 0)translate(0, 67.065)"></path><path d="M 0 18.53 C 0 18.87 0.17 18.955 0.425 18.955 L 6.97 18.955 C 7.31 18.955 7.395 18.87 7.395 18.53 C 7.395 18.275 7.31 18.105 6.97 18.105 L 5.61 18.105 C 5.44 18.105 5.355 18.105 5.355 18.02 C 5.355 18.02 5.355 17.85 5.44 17.765 L 6.97 13.94 C 6.97 13.77 7.055 13.6 7.225 13.6 C 7.395 13.6 7.48 13.94 8.075 14.195 C 8.5 14.45 9.01 14.45 9.52 14.45 C 12.835 14.45 15.47 11.05 15.47 7.82 C 15.47 5.865 14.28 4.845 12.325 4.845 C 11.305 4.845 10.54 5.185 9.945 5.695 C 9.435 6.12 9.35 6.375 9.18 6.375 C 9.01 6.375 9.18 6.12 8.84 5.61 C 8.585 5.185 8.075 4.845 7.225 4.845 C 5.185 4.845 4.08 6.29 3.06 8.245 C 2.89 8.5 2.805 8.67 2.805 8.84 C 2.805 9.095 2.975 9.265 3.23 9.265 C 3.4 9.265 3.57 9.01 3.74 8.755 C 4.76 7.055 5.44 6.12 6.035 6.12 C 6.29 6.12 6.375 6.29 6.375 6.545 C 6.375 6.8 6.29 7.14 6.205 7.395 L 2.04 17.765 C 1.87 18.02 1.87 18.105 1.53 18.105 L 0.425 18.105 C 0.17 18.105 0 18.275 0 18.53 Z M 7.905 12.24 C 7.905 11.56 8.16 10.88 8.585 9.86 L 9.265 8.245 C 9.69 7.055 10.625 6.12 11.39 6.12 C 11.985 6.12 12.24 6.63 12.24 7.31 C 12.24 9.01 10.37 13.345 8.755 13.345 C 8.16 13.345 7.905 12.92 7.905 12.24 Z" fill="#121212" fill-rule="evenodd" vector-effect="none" ref-ids="crescendo-or-diminuendo-value-after-2" pointer-events="painted" data-left="337.11" data-right="352.58" data-top="35.36" data-bottom="49.47" transform="translate(0, 3.4)translate(269.11, 0)translate(0, 67.065)"></path><path d="M 187.51 70.465 L 262.31 82.365 M 187.51 94.265 L 262.31 82.365" fill="#121212" fill-rule="evenodd" vector-effect="none" stroke="#121212" stroke-width="1.785" stroke-linejoin="bevel" stroke-linecap="round" data-left="255.51" data-right="330.31" data-top="30.515" data-bottom="54.315"></path></g></g></g><rect width="68" height="34" stroke="#FDF5E6" stroke-width="0.0085" stroke-linejoin="bevel" stroke-linecap="butt" fill="none" vector-effect="none" data-left="0" data-right="68" data-top="76.5" data-bottom="110.5" transform="translate(0, 76.5)"></rect><rect width="68" height="34" stroke="#FDF5E6" stroke-width="0.0085" stroke-linejoin="bevel" stroke-linecap="butt" fill="none" vector-effect="none" data-left="912" data-right="980" data-top="76.5" data-bottom="110.5" transform="translate(912, 76.5)"></rect></g></g></svg>