<svg xmlns="http://www.w3.org/2000/svg" version="1.1" xmlns:xlink="http://www.w3.org/1999/xlink" width="980" height="306" viewBox="0 0 980 306" shape-rendering="geometricPrecision" data-left="0" data-right="980" data-top="0" data-bottom="306"><g data-name="page" data-interval-between-stave-lines="8.5" data-font-color="#121212" data-left="0" data-right="980" data-top="0" data-bottom="306"><rect width="980" height="306" stroke="transparent" stroke-width="0.425" stroke-linejoin="" stroke-linecap="" fill="#FDF5E6" vector-effect="none" data-name="page-background" data-left="0" data-right="980" data-top="0" data-bottom="306"></rect><g data-name="pageWithoutBorder" data-left="0" data-right="980" data-top="39.95" data-bottom="242.59"><g data-name="measures" data-left="68" data-right="912" data-top="39.95" data-bottom="242.59" transform="translate(68, 0)"><g data-name="additionalStaveLinesOnPageLine" data-left="78.285" data-right="172.635" data-top="238" data-bottom="238"><line data-name="additionalStaveLine" x1="10.285" y1="238" x2="30.175" y2="238" stroke="#121212" stroke-width="1.445" stroke-linejoin="round" stroke-linecap="round" stroke-dasharray="" vector-effect="none" data-left="78.285" data-right="98.175" data-top="238" data-bottom="238"></line><line data-name="additionalStaveLine" x1="35.105" y1="238" x2="54.995" y2="238" stroke="#121212" stroke-width="1.445" stroke-linejoin="round" stroke-linecap="round" stroke-dasharray="" vector-effect="none" data-left="103.105" data-right="122.995" data-top="238" data-bottom="238"></line><line data-name="additionalStaveLine" x1="59.925" y1="238" x2="79.815" y2="238" stroke="#121212" stroke-width="1.445" stroke-linejoin="round" stroke-linecap="round" stroke-dasharray="" vector-effect="none" data-left="127.925" data-right="147.815" data-top="238" data-bottom="238"></line><line data-name="additionalStaveLine" x1="84.745" y1="238" x2="104.635" y2="238" stroke="#121212" stroke-width="1.445" stroke-linejoin="round" stroke-linecap="round" stroke-dasharray="" vector-effect="none" data-left="152.745" data-right="172.635" data-top="238" data-bottom="238"></line></g><g data-name="additionalStaveLinesOnPageLine" data-left="78.285" data-right="172.635" data-top="119" data-bottom="119"><line data-name="additionalStaveLine" x1="10.285" y1="119" x2="30.175" y2="119" stroke="#121212" stroke-width="1.445" stroke-linejoin="round" stroke-linecap="round" stroke-dasharray="" vector-effect="none" data-left="78.285" data-right="98.175" data-top="119" data-bottom="119"></line><line data-name="additionalStaveLine" x1="35.105" y1="119" x2="54.995" y2="119" stroke="#121212" stroke-width="1.445" stroke-linejoin="round" stroke-linecap="round" stroke-dasharray="" vector-effect="none" data-left="103.105" data-right="122.995" data-top="119" data-bottom="119"></line><line data-name="additionalStaveLine" x1="59.925" y1="119" x2="79.815" y2="119" stroke="#121212" stroke-width="1.445" stroke-linejoin="round" stroke-linecap="round" stroke-dasharray="" vector-effect="none" data-left="127.925" data-right="147.815" data-top="119" data-bottom="119"></line><line data-name="additionalStaveLine" x1="84.745" y1="119" x2="104.635" y2="119" stroke="#121212" stroke-width="1.445" stroke-linejoin="round" stroke-linecap="round" stroke-dasharray="" vector-effect="none" data-left="152.745" data-right="172.635" data-top="119" data-bottom="119"></line></g><g data-name="measure" ref-ids="measure-1,measure-1-1,line-1,every-measure-including-index-0,first-measure-including-index-0,last-measure,first-or-last-measure" pointer-events="painted" data-left="68" data-right="912" data-top="39.95" data-bottom="123.59"><g data-name="startBarLine" ref-ids="opening-barline-1" pointer-events="painted" data-left="68" data-right="69.955" data-top="75.99" data-bottom="111.01"><g data-name="stavesPiece" data-left="68" data-right="69.955" data-top="75.99" data-bottom="111.01"><g data-name="stavePiece" data-left="68" data-right="69.955" data-top="75.99" data-bottom="111.01"><path d="M 0 -0.51 L 1.955 -0.51 L 1.955 0.51 L 0 0.51 L 0 -0.51 M 0 7.99 L 1.955 7.99 L 1.955 9.01 L 0 9.01 L 0 7.99 M 0 16.49 L 1.955 16.49 L 1.955 17.51 L 0 17.51 L 0 16.49 M 0 24.99 L 1.955 24.99 L 1.955 26.01 L 0 26.01 L 0 24.99 M 0 33.49 L 1.955 33.49 L 1.955 34.51 L 0 34.51 L 0 33.49" fill="#343434" fill-rule="evenodd" vector-effect="none" data-left="68" data-right="69.955" data-top="75.99" data-bottom="111.01" transform="translate(0, 76.5)"></path></g></g><polyline points="0 75.99 1.955 75.99 1.955 111.01 0 111.01" fill="#121212" fill-rule="evenodd" vector-effect="none" data-left="68" data-right="69.955" data-top="75.99" data-bottom="111.01"></polyline></g><g data-name="barLine" ref-ids="closing-barline-1" pointer-events="painted" data-left="910.045" data-right="912" data-top="75.99" data-bottom="111.01" transform="translate(840.09, 0)"><g data-name="stavesPiece" data-left="910.045" data-right="912" data-top="75.99" data-bottom="111.01"><g data-name="stavePiece" data-left="910.045" data-right="912" data-top="75.99" data-bottom="111.01"><path d="M 0 -0.51 L 1.955 -0.51 L 1.955 0.51 L 0 0.51 L 0 -0.51 M 0 7.99 L 1.955 7.99 L 1.955 9.01 L 0 9.01 L 0 7.99 M 0 16.49 L 1.955 16.49 L 1.955 17.51 L 0 17.51 L 0 16.49 M 0 24.99 L 1.955 24.99 L 1.955 26.01 L 0 26.01 L 0 24.99 M 0 33.49 L 1.955 33.49 L 1.955 34.51 L 0 34.51 L 0 33.49" fill="#343434" fill-rule="evenodd" vector-effect="none" data-left="910.045" data-right="912" data-top="75.99" data-bottom="111.01" transform="translate(1.955, 76.5)"></path></g></g><polyline points="3.91 75.99 1.955 75.99 1.955 111.01 3.91 111.01" fill="#121212" fill-rule="evenodd" vector-effect="none" data-left="910.045" data-right="912" data-top="75.99" data-bottom="111.01"></polyline></g><g data-name="voicesWithStaveLines" data-left="69.955" data-right="910.045" data-top="75.99" data-bottom="123.59"><g data-name="stavesPiece" data-left="69.955" data-right="910.045" data-top="75.99" data-bottom="111.01"><g data-name="stavePiece" ref-ids="stave-lines-1-1,stave-1,stave-1-1,stave-1-1-1,stave-in-all-measures-on-line-1-1,all-staves-in-measure-1" pointer-events="painted" data-left="68" data-right="912" data-top="75.99" data-bottom="111.01"><path d="M 0 -0.51 L 840.09 -0.51 L 840.09 0.51 L 0 0.51 L 0 -0.51 M 0 7.99 L 840.09 7.99 L 840.09 9.01 L 0 9.01 L 0 7.99 M 0 16.49 L 840.09 16.49 L 840.09 17.51 L 0 17.51 L 0 16.49 M 0 24.99 L 840.09 24.99 L 840.09 26.01 L 0 26.01 L 0 24.99 M 0 33.49 L 840.09 33.49 L 840.09 34.51 L 0 34.51 L 0 33.49" fill="#343434" fill-rule="evenodd" vector-effect="none" data-left="69.955" data-right="910.045" data-top="75.99" data-bottom="111.01" transform="translate(1.955, 76.5)"></path></g></g><g data-name="voices" data-left="69.955" data-right="910.045" data-top="76.5" data-bottom="123.59"><g data-name="voicesBody" data-left="69.955" data-right="910.045" data-top="39.95" data-bottom="123.59"><g data-name="crossStaveUnit" data-left="82.705" data-right="93.755" data-top="88.655" data-bottom="123.59"><g data-name="crossVoiceUnitOnOneStave" data-left="82.705" data-right="93.755" data-top="88.655" data-bottom="123.59"><g data-name="singleUnit" ref-ids="all-units,all-units-on-line-1,unit-1-1-1-1,voice-1,voice-1-1,voice-1-1-1,voice-1-1-1-1,voice-in-measure-on-all-staves-1-1-1,voice-in-all-measures-and-on-all-staves-on-line-1-1" pointer-events="painted" data-left="82.705" data-right="93.755" data-top="39.95" data-bottom="123.59"><g data-name="singleUnitBodyParts" ref-ids="unit-1-1-1-1" pointer-events="painted" data-left="82.705" data-right="93.755" data-top="114.58" data-bottom="123.59"><g data-name="singleUnitBody" data-left="82.705" data-right="93.755" data-top="114.58" data-bottom="123.59"><g data-name="noteBody" ref-ids="note-1-1-1-1-1,note-with-index-1-1-1-1-1" pointer-events="painted" data-left="82.705" data-right="93.755" data-top="114.58" data-bottom="123.59"><path d="M 0 10.455 C 0 11.9 1.02 13.515 3.825 13.515 C 7.31 13.515 11.05 10.625 11.05 7.65 C 11.05 5.61 9.35 4.505 7.225 4.505 C 3.91 4.505 0 7.31 0 10.455 Z" fill="#121212" fill-rule="evenodd" vector-effect="none" data-left="82.705" data-right="93.755" data-top="114.58" data-bottom="123.59" transform="translate(14.705, 110.075)"></path></g></g></g><line data-name="stem" x1="25.16" y1="88.655" x2="25.16" y2="117.215" stroke="#121212" stroke-width="1.19" stroke-linejoin="round" stroke-linecap="round" stroke-dasharray="" vector-effect="none" ref-ids="stem-1-1-1-1" pointer-events="painted" data-left="93.16" data-right="93.16" data-top="88.655" data-bottom="117.215"></line></g></g></g><g data-name="crossStaveUnit" data-left="107.525" data-right="118.575" data-top="88.655" data-bottom="123.59"><g data-name="crossVoiceUnitOnOneStave" data-left="107.525" data-right="118.575" data-top="88.655" data-bottom="123.59"><g data-name="singleUnit" ref-ids="all-units,all-units-on-line-1,unit-1-1-1-2,voice-1,voice-1-1,voice-1-1-1,voice-1-1-1-1,voice-in-measure-on-all-staves-1-1-1,voice-in-all-measures-and-on-all-staves-on-line-1-1" pointer-events="painted" data-left="107.525" data-right="118.575" data-top="39.95" data-bottom="123.59"><g data-name="singleUnitBodyParts" ref-ids="unit-1-1-1-2" pointer-events="painted" data-left="107.525" data-right="118.575" data-top="114.58" data-bottom="123.59"><g data-name="singleUnitBody" data-left="107.525" data-right="118.575" data-top="114.58" data-bottom="123.59"><g data-name="noteBody" ref-ids="note-1-1-1-2-1,note-with-index-1-1-1-2-1" pointer-events="painted" data-left="107.525" data-right="118.575" data-top="114.58" data-bottom="123.59"><path d="M 0 10.455 C 0 11.9 1.02 13.515 3.825 13.515 C 7.31 13.515 11.05 10.625 11.05 7.65 C 11.05 5.61 9.35 4.505 7.225 4.505 C 3.91 4.505 0 7.31 0 10.455 Z" fill="#121212" fill-rule="evenodd" vector-effect="none" data-left="107.525" data-right="118.575" data-top="114.58" data-bottom="123.59" transform="translate(39.525, 110.075)"></path></g></g></g><line data-name="stem" x1="49.98" y1="88.655" x2="49.98" y2="117.215" stroke="#121212" stroke-width="1.19" stroke-linejoin="round" stroke-linecap="round" stroke-dasharray="" vector-effect="none" ref-ids="stem-1-1-1-2" pointer-events="painted" data-left="117.98" data-right="117.98" data-top="88.655" data-bottom="117.215"></line></g></g></g><g data-name="crossStaveUnit" data-left="132.345" data-right="143.395" data-top="88.655" data-bottom="123.59"><g data-name="crossVoiceUnitOnOneStave" data-left="132.345" data-right="143.395" data-top="88.655" data-bottom="123.59"><g data-name="singleUnit" ref-ids="all-units,all-units-on-line-1,unit-1-1-1-3,voice-1,voice-1-1,voice-1-1-1,voice-1-1-1-1,voice-in-measure-on-all-staves-1-1-1,voice-in-all-measures-and-on-all-staves-on-line-1-1" pointer-events="painted" data-left="132.345" data-right="143.395" data-top="39.95" data-bottom="123.59"><g data-name="singleUnitBodyParts" ref-ids="unit-1-1-1-3" pointer-events="painted" data-left="132.345" data-right="143.395" data-top="114.58" data-bottom="123.59"><g data-name="singleUnitBody" data-left="132.345" data-right="143.395" data-top="114.58" data-bottom="123.59"><g data-name="noteBody" ref-ids="note-1-1-1-3-1,note-with-index-1-1-1-3-1" pointer-events="painted" data-left="132.345" data-right="143.395" data-top="114.58" data-bottom="123.59"><path d="M 0 10.455 C 0 11.9 1.02 13.515 3.825 13.515 C 7.31 13.515 11.05 10.625 11.05 7.65 C 11.05 5.61 9.35 4.505 7.225 4.505 C 3.91 4.505 0 7.31 0 10.455 Z" fill="#121212" fill-rule="evenodd" vector-effect="none" data-left="132.345" data-right="143.395" data-top="114.58" data-bottom="123.59" transform="translate(64.345, 110.075)"></path></g></g></g><line data-name="stem" x1="74.8" y1="88.655" x2="74.8" y2="117.215" stroke="#121212" stroke-width="1.19" stroke-linejoin="round" stroke-linecap="round" stroke-dasharray="" vector-effect="none" ref-ids="stem-1-1-1-3" pointer-events="painted" data-left="142.8" data-right="142.8" data-top="88.655" data-bottom="117.215"></line></g></g></g><g data-name="crossStaveUnit" data-left="157.165" data-right="168.215" data-top="88.655" data-bottom="123.59"><g data-name="crossVoiceUnitOnOneStave" data-left="157.165" data-right="168.215" data-top="88.655" data-bottom="123.59"><g data-name="singleUnit" ref-ids="all-units,all-units-on-line-1,unit-1-1-1-4,voice-1,voice-1-1,voice-1-1-1,voice-1-1-1-1,voice-in-measure-on-all-staves-1-1-1,voice-in-all-measures-and-on-all-staves-on-line-1-1" pointer-events="painted" data-left="157.165" data-right="168.215" data-top="39.95" data-bottom="123.59"><g data-name="singleUnitBodyParts" ref-ids="unit-1-1-1-4" pointer-events="painted" data-left="157.165" data-right="168.215" data-top="114.58" data-bottom="123.59"><g data-name="singleUnitBody" data-left="157.165" data-right="168.215" data-top="114.58" data-bottom="123.59"><g data-name="noteBody" ref-ids="note-1-1-1-4-1,note-with-index-1-1-1-4-1" pointer-events="painted" data-left="157.165" data-right="168.215" data-top="114.58" data-bottom="123.59"><path d="M 0 10.455 C 0 11.9 1.02 13.515 3.825 13.515 C 7.31 13.515 11.05 10.625 11.05 7.65 C 11.05 5.61 9.35 4.505 7.225 4.505 C 3.91 4.505 0 7.31 0 10.455 Z" fill="#121212" fill-rule="evenodd" vector-effect="none" data-left="157.165" data-right="168.215" data-top="114.58" data-bottom="123.59" transform="translate(89.165, 110.075)"></path></g></g></g><line data-name="stem" x1="99.62" y1="88.655" x2="99.62" y2="117.215" stroke="#121212" stroke-width="1.19" stroke-linejoin="round" stroke-linecap="round" stroke-dasharray="" vector-effect="none" ref-ids="stem-1-1-1-4" pointer-events="painted" data-left="167.62" data-right="167.62" data-top="88.655" data-bottom="117.215"></line></g></g></g></g></g></g></g><g data-name="additionalMeasureElementsOnPageLine" data-left="82.705" data-right="175.61" data-top="39.95" data-bottom="63.75"><g data-name="dynamicChange" ref-ids="crescendo-or-diminuendo-1" pointer-events="painted" data-left="82.705" data-right="175.61" data-top="39.95" data-bottom="63.75" transform="translate(0, -41.65)"><path d="M 1.785 22.95 C 0.85 22.95 0 23.8 0 24.65 C 0 26.435 1.19 27.455 2.72 27.455 C 3.825 27.455 4.59 27.115 5.44 26.265 C 6.97 24.735 8.585 19.72 9.435 16.83 C 9.69 15.725 10.03 14.62 10.285 13.855 L 10.285 13.77 L 12.75 13.77 C 12.92 13.77 13.09 13.685 13.09 13.43 L 13.09 12.75 C 13.09 12.495 12.92 12.41 12.75 12.41 L 10.71 12.41 L 10.71 12.24 C 11.645 8.84 11.9 8.16 12.41 7.82 C 12.75 7.565 12.92 7.48 13.09 7.48 C 13.175 7.48 13.26 7.565 13.26 7.565 C 13.515 7.565 13.685 7.82 13.685 7.99 C 13.685 8.16 13.6 8.33 13.43 8.415 C 13.09 8.67 12.92 9.095 12.92 9.605 C 12.92 9.775 13.005 9.86 13.005 10.03 C 13.09 10.37 13.43 10.71 13.77 10.795 C 13.855 10.88 14.11 10.965 14.365 10.965 C 15.045 10.965 15.81 10.37 15.98 9.69 C 15.98 9.52 15.98 9.35 15.98 9.18 C 15.98 7.48 14.45 6.545 12.92 6.545 C 9.775 6.545 8.415 9.775 7.565 12.325 L 7.565 12.41 L 4.93 12.41 C 4.76 12.41 4.59 12.495 4.59 12.75 L 4.59 13.43 C 4.59 13.685 4.76 13.77 4.93 13.77 L 7.055 13.77 L 7.055 13.94 C 6.715 15.3 6.46 16.49 6.205 17.595 C 5.95 18.87 5.61 20.145 5.27 21.675 L 5.1 22.1 C 4.42 24.905 4.25 25.84 3.4 26.435 C 3.23 26.52 3.06 26.605 2.805 26.605 C 2.635 26.605 2.465 26.52 2.38 26.435 C 2.21 26.35 2.21 26.18 2.21 26.01 C 2.21 25.925 2.295 25.755 2.465 25.67 C 3.06 25.415 3.315 24.82 3.315 24.31 C 3.315 23.8 2.975 22.95 1.785 22.95 Z" fill="#121212" fill-rule="evenodd" vector-effect="none" ref-ids="crescendo-or-diminuendo-value-after-1" pointer-events="painted" data-left="159.63" data-right="175.61" data-top="41.395" data-bottom="62.305" transform="translate(91.63, 0)translate(0, 76.5)"></path><path d="M 14.705 93.5 L 84.83 81.6 M 14.705 93.5 L 84.83 105.4" fill="#121212" fill-rule="evenodd" vector-effect="none" stroke="#121212" stroke-width="1.785" stroke-linejoin="bevel" stroke-linecap="round" data-left="82.705" data-right="152.83" data-top="39.95" data-bottom="63.75"></path></g></g><g data-name="measure" ref-ids="measure-2,measure-2-1,line-2,every-measure,every-measure-including-index-0,first-measure,first-or-last-measure,first-measure-including-index-0,last-measure,first-or-last-measure,last-measure-on-page" pointer-events="painted" data-left="68" data-right="912" data-top="158.95" data-bottom="242.59"><g data-name="startBarLine" ref-ids="opening-barline-2" pointer-events="painted" data-left="68" data-right="69.955" data-top="194.99" data-bottom="230.01"><g data-name="stavesPiece" data-left="68" data-right="69.955" data-top="194.99" data-bottom="230.01"><g data-name="stavePiece" data-left="68" data-right="69.955" data-top="194.99" data-bottom="230.01"><path d="M 0 -0.51 L 1.955 -0.51 L 1.955 0.51 L 0 0.51 L 0 -0.51 M 0 7.99 L 1.955 7.99 L 1.955 9.01 L 0 9.01 L 0 7.99 M 0 16.49 L 1.955 16.49 L 1.955 17.51 L 0 17.51 L 0 16.49 M 0 24.99 L 1.955 24.99 L 1.955 26.01 L 0 26.01 L 0 24.99 M 0 33.49 L 1.955 33.49 L 1.955 34.51 L 0 34.51 L 0 33.49" fill="#343434" fill-rule="evenodd" vector-effect="none" data-left="68" data-right="69.955" data-top="194.99" data-bottom="230.01" transform="translate(0, 195.5)"></path></g></g><polyline points="0 194.99 1.955 194.99 1.955 230.01 0 230.01" fill="#121212" fill-rule="evenodd" vector-effect="none" data-left="68" data-right="69.955" data-top="194.99" data-bottom="230.01"></polyline></g><g data-name="barLine" ref-ids="closing-barline-2" pointer-events="painted" data-left="910.045" data-right="912" data-top="194.99" data-bottom="230.01" transform="translate(840.09, 0)"><g data-name="stavesPiece" data-left="910.045" data-right="912" data-top="194.99" data-bottom="230.01"><g data-name="stavePiece" data-left="910.045" data-right="912" data-top="194.99" data-bottom="230.01"><path d="M 0 -0.51 L 1.955 -0.51 L 1.955 0.51 L 0 0.51 L 0 -0.51 M 0 7.99 L 1.955 7.99 L 1.955 9.01 L 0 9.01 L 0 7.99 M 0 16.49 L 1.955 16.49 L 1.955 17.51 L 0 17.51 L 0 16.49 M 0 24.99 L 1.955 24.99 L 1.955 26.01 L 0 26.01 L 0 24.99 M 0 33.49 L 1.955 33.49 L 1.955 34.51 L 0 34.51 L 0 33.49" fill="#343434" fill-rule="evenodd" vector-effect="none" data-left="910.045" data-right="912" data-top="194.99" data-bottom="230.01" transform="translate(1.955, 195.5)"></path></g></g><polyline points="3.91 194.99 1.955 194.99 1.955 230.01 3.91 230.01" fill="#121212" fill-rule="evenodd" vector-effect="none" data-left="910.045" data-right="912" data-top="194.99" data-bottom="230.01"></polyline></g><g data-name="voicesWithStaveLines" data-left="69.955" data-right="910.045" data-top="194.99" data-bottom="242.59"><g data-name="stavesPiece" data-left="69.955" data-right="910.045" data-top="194.99" data-bottom="230.01"><g data-name="stavePiece" ref-ids="stave-lines-2-1,stave-1,stave-2-1,stave-2-1-1,stave-in-all-measures-on-line-2-1,all-staves-in-measure-2" pointer-events="painted" data-left="68" data-right="912" data-top="194.99" data-bottom="230.01"><path d="M 0 -0.51 L 840.09 -0.51 L 840.09 0.51 L 0 0.51 L 0 -0.51 M 0 7.99 L 840.09 7.99 L 840.09 9.01 L 0 9.01 L 0 7.99 M 0 16.49 L 840.09 16.49 L 840.09 17.51 L 0 17.51 L 0 16.49 M 0 24.99 L 840.09 24.99 L 840.09 26.01 L 0 26.01 L 0 24.99 M 0 33.49 L 840.09 33.49 L 840.09 34.51 L 0 34.51 L 0 33.49" fill="#343434" fill-rule="evenodd" vector-effect="none" data-left="69.955" data-right="910.045" data-top="194.99" data-bottom="230.01" transform="translate(1.955, 195.5)"></path></g></g><g data-name="voices" data-left="69.955" data-right="910.045" data-top="195.5" data-bottom="242.59"><g data-name="voicesBody" data-left="69.955" data-right="910.045" data-top="158.95" data-bottom="242.59"><g data-name="crossStaveUnit" data-left="82.705" data-right="93.755" data-top="207.655" data-bottom="242.59"><g data-name="crossVoiceUnitOnOneStave" data-left="82.705" data-right="93.755" data-top="207.655" data-bottom="242.59"><g data-name="singleUnit" ref-ids="all-units,all-units-on-line-2,unit-2-1-1-1,voice-1,voice-1-1,voice-2-1-1,voice-2-1-1-1,voice-in-measure-on-all-staves-2-1-1,voice-in-all-measures-and-on-all-staves-on-line-2-1" pointer-events="painted" data-left="82.705" data-right="93.755" data-top="158.95" data-bottom="242.59"><g data-name="singleUnitBodyParts" ref-ids="unit-2-1-1-1" pointer-events="painted" data-left="82.705" data-right="93.755" data-top="233.58" data-bottom="242.59"><g data-name="singleUnitBody" data-left="82.705" data-right="93.755" data-top="233.58" data-bottom="242.59"><g data-name="noteBody" ref-ids="note-2-1-1-1-1,note-with-index-2-1-1-1-1" pointer-events="painted" data-left="82.705" data-right="93.755" data-top="233.58" data-bottom="242.59"><path d="M 0 10.455 C 0 11.9 1.02 13.515 3.825 13.515 C 7.31 13.515 11.05 10.625 11.05 7.65 C 11.05 5.61 9.35 4.505 7.225 4.505 C 3.91 4.505 0 7.31 0 10.455 Z" fill="#121212" fill-rule="evenodd" vector-effect="none" data-left="82.705" data-right="93.755" data-top="233.58" data-bottom="242.59" transform="translate(14.705, 229.075)"></path></g></g></g><line data-name="stem" x1="25.16" y1="207.655" x2="25.16" y2="236.215" stroke="#121212" stroke-width="1.19" stroke-linejoin="round" stroke-linecap="round" stroke-dasharray="" vector-effect="none" ref-ids="stem-2-1-1-1" pointer-events="painted" data-left="93.16" data-right="93.16" data-top="207.655" data-bottom="236.215"></line></g></g></g><g data-name="crossStaveUnit" data-left="107.525" data-right="118.575" data-top="207.655" data-bottom="242.59"><g data-name="crossVoiceUnitOnOneStave" data-left="107.525" data-right="118.575" data-top="207.655" data-bottom="242.59"><g data-name="singleUnit" ref-ids="all-units,all-units-on-line-2,unit-2-1-1-2,voice-1,voice-1-1,voice-2-1-1,voice-2-1-1-1,voice-in-measure-on-all-staves-2-1-1,voice-in-all-measures-and-on-all-staves-on-line-2-1" pointer-events="painted" data-left="107.525" data-right="118.575" data-top="158.95" data-bottom="242.59"><g data-name="singleUnitBodyParts" ref-ids="unit-2-1-1-2" pointer-events="painted" data-left="107.525" data-right="118.575" data-top="233.58" data-bottom="242.59"><g data-name="singleUnitBody" data-left="107.525" data-right="118.575" data-top="233.58" data-bottom="242.59"><g data-name="noteBody" ref-ids="note-2-1-1-2-1,note-with-index-2-1-1-2-1" pointer-events="painted" data-left="107.525" data-right="118.575" data-top="233.58" data-bottom="242.59"><path d="M 0 10.455 C 0 11.9 1.02 13.515 3.825 13.515 C 7.31 13.515 11.05 10.625 11.05 7.65 C 11.05 5.61 9.35 4.505 7.225 4.505 C 3.91 4.505 0 7.31 0 10.455 Z" fill="#121212" fill-rule="evenodd" vector-effect="none" data-left="107.525" data-right="118.575" data-top="233.58" data-bottom="242.59" transform="translate(39.525, 229.075)"></path></g></g></g><line data-name="stem" x1="49.98" y1="207.655" x2="49.98" y2="236.215" stroke="#121212" stroke-width="1.19" stroke-linejoin="round" stroke-linecap="round" stroke-dasharray="" vector-effect="none" ref-ids="stem-2-1-1-2" pointer-events="painted" data-left="117.98" data-right="117.98" data-top="207.655" data-bottom="236.215"></line></g></g></g><g data-name="crossStaveUnit" data-left="132.345" data-right="143.395" data-top="207.655" data-bottom="242.59"><g data-name="crossVoiceUnitOnOneStave" data-left="132.345" data-right="143.395" data-top="207.655" data-bottom="242.59"><g data-name="singleUnit" ref-ids="all-units,all-units-on-line-2,unit-2-1-1-3,voice-1,voice-1-1,voice-2-1-1,voice-2-1-1-1,voice-in-measure-on-all-staves-2-1-1,voice-in-all-measures-and-on-all-staves-on-line-2-1" pointer-events="painted" data-left="132.345" data-right="143.395" data-top="158.95" data-bottom="242.59"><g data-name="singleUnitBodyParts" ref-ids="unit-2-1-1-3" pointer-events="painted" data-left="132.345" data-right="143.395" data-top="233.58" data-bottom="242.59"><g data-name="singleUnitBody" data-left="132.345" data-right="143.395" data-top="233.58" data-bottom="242.59"><g data-name="noteBody" ref-ids="note-2-1-1-3-1,note-with-index-2-1-1-3-1" pointer-events="painted" data-left="132.345" data-right="143.395" data-top="233.58" data-bottom="242.59"><path d="M 0 10.455 C 0 11.9 1.02 13.515 3.825 13.515 C 7.31 13.515 11.05 10.625 11.05 7.65 C 11.05 5.61 9.35 4.505 7.225 4.505 C 3.91 4.505 0 7.31 0 10.455 Z" fill="#121212" fill-rule="evenodd" vector-effect="none" data-left="132.345" data-right="143.395" data-top="233.58" data-bottom="242.59" transform="translate(64.345, 229.075)"></path></g></g></g><line data-name="stem" x1="74.8" y1="207.655" x2="74.8" y2="236.215" stroke="#121212" stroke-width="1.19" stroke-linejoin="round" stroke-linecap="round" stroke-dasharray="" vector-effect="none" ref-ids="stem-2-1-1-3" pointer-events="painted" data-left="142.8" data-right="142.8" data-top="207.655" data-bottom="236.215"></line></g></g></g><g data-name="crossStaveUnit" data-left="157.165" data-right="168.215" data-top="207.655" data-bottom="242.59"><g data-name="crossVoiceUnitOnOneStave" data-left="157.165" data-right="168.215" data-top="207.655" data-bottom="242.59"><g data-name="singleUnit" ref-ids="all-units,all-units-on-line-2,unit-2-1-1-4,voice-1,voice-1-1,voice-2-1-1,voice-2-1-1-1,voice-in-measure-on-all-staves-2-1-1,voice-in-all-measures-and-on-all-staves-on-line-2-1" pointer-events="painted" data-left="157.165" data-right="168.215" data-top="158.95" data-bottom="242.59"><g data-name="singleUnitBodyParts" ref-ids="unit-2-1-1-4" pointer-events="painted" data-left="157.165" data-right="168.215" data-top="233.58" data-bottom="242.59"><g data-name="singleUnitBody" data-left="157.165" data-right="168.215" data-top="233.58" data-bottom="242.59"><g data-name="noteBody" ref-ids="note-2-1-1-4-1,note-with-index-2-1-1-4-1" pointer-events="painted" data-left="157.165" data-right="168.215" data-top="233.58" data-bottom="242.59"><path d="M 0 10.455 C 0 11.9 1.02 13.515 3.825 13.515 C 7.31 13.515 11.05 10.625 11.05 7.65 C 11.05 5.61 9.35 4.505 7.225 4.505 C 3.91 4.505 0 7.31 0 10.455 Z" fill="#121212" fill-rule="evenodd" vector-effect="none" data-left="157.165" data-right="168.215" data-top="233.58" data-bottom="242.59" transform="translate(89.165, 229.075)"></path></g></g></g><line data-name="stem" x1="99.62" y1="207.655" x2="99.62" y2="236.215" stroke="#121212" stroke-width="1.19" stroke-linejoin="round" stroke-linecap="round" stroke-dasharray="" vector-effect="none" ref-ids="stem-2-1-1-4" pointer-events="painted" data-left="167.62" data-right="167.62" data-top="207.655" data-bottom="236.215"></line></g></g></g></g></g></g></g><g data-name="additionalMeasureElementsOnPageLine" data-left="82.705" data-right="175.61" data-top="158.95" data-bottom="182.75"><g data-name="dynamicChange" ref-ids="crescendo-or-diminuendo-2" pointer-events="painted" data-left="82.705" data-right="175.61" data-top="158.95" data-bottom="182.75" transform="translate(0, -41.65)"><path d="M 1.785 22.95 C 0.85 22.95 0 23.8 0 24.65 C 0 26.435 1.19 27.455 2.72 27.455 C 3.825 27.455 4.59 27.115 5.44 26.265 C 6.97 24.735 8.585 19.72 9.435 16.83 C 9.69 15.725 10.03 14.62 10.285 13.855 L 10.285 13.77 L 12.75 13.77 C 12.92 13.77 13.09 13.685 13.09 13.43 L 13.09 12.75 C 13.09 12.495 12.92 12.41 12.75 12.41 L 10.71 12.41 L 10.71 12.24 C 11.645 8.84 11.9 8.16 12.41 7.82 C 12.75 7.565 12.92 7.48 13.09 7.48 C 13.175 7.48 13.26 7.565 13.26 7.565 C 13.515 7.565 13.685 7.82 13.685 7.99 C 13.685 8.16 13.6 8.33 13.43 8.415 C 13.09 8.67 12.92 9.095 12.92 9.605 C 12.92 9.775 13.005 9.86 13.005 10.03 C 13.09 10.37 13.43 10.71 13.77 10.795 C 13.855 10.88 14.11 10.965 14.365 10.965 C 15.045 10.965 15.81 10.37 15.98 9.69 C 15.98 9.52 15.98 9.35 15.98 9.18 C 15.98 7.48 14.45 6.545 12.92 6.545 C 9.775 6.545 8.415 9.775 7.565 12.325 L 7.565 12.41 L 4.93 12.41 C 4.76 12.41 4.59 12.495 4.59 12.75 L 4.59 13.43 C 4.59 13.685 4.76 13.77 4.93 13.77 L 7.055 13.77 L 7.055 13.94 C 6.715 15.3 6.46 16.49 6.205 17.595 C 5.95 18.87 5.61 20.145 5.27 21.675 L 5.1 22.1 C 4.42 24.905 4.25 25.84 3.4 26.435 C 3.23 26.52 3.06 26.605 2.805 26.605 C 2.635 26.605 2.465 26.52 2.38 26.435 C 2.21 26.35 2.21 26.18 2.21 26.01 C 2.21 25.925 2.295 25.755 2.465 25.67 C 3.06 25.415 3.315 24.82 3.315 24.31 C 3.315 23.8 2.975 22.95 1.785 22.95 Z" fill="#121212" fill-rule="evenodd" vector-effect="none" ref-ids="crescendo-or-diminuendo-value-after-2" pointer-events="painted" data-left="159.63" data-right="175.61" data-top="160.395" data-bottom="181.305" transform="translate(91.63, 0)translate(0, 195.5)"></path><path d="M 14.705 200.6 L 84.83 212.5 M 14.705 224.4 L 84.83 212.5" fill="#121212" fill-rule="evenodd" vector-effect="none" stroke="#121212" stroke-width="1.785" stroke-linejoin="bevel" stroke-linecap="round" data-left="82.705" data-right="152.83" data-top="158.95" data-bottom="182.75"></path></g></g></g><rect width="68" height="153" stroke="#FDF5E6" stroke-width="0.0085" stroke-linejoin="bevel" stroke-linecap="butt" fill="none" vector-effect="none" data-left="0" data-right="68" data-top="76.5" data-bottom="229.5" transform="translate(0, 76.5)"></rect><rect width="68" height="153" stroke="#FDF5E6" stroke-width="0.0085" stroke-linejoin="bevel" stroke-linecap="butt" fill="none" vector-effect="none" data-left="912" data-right="980" data-top="76.5" data-bottom="229.5" transform="translate(912, 76.5)"></rect></g></g></svg>